  0
SECTION
  2
HEADER
  9
$ACADVER
  1
AC1014
  9
$HANDSEED
  5
FFFF
  9
$MEASUREMENT
 70
     1
  0
ENDSEC
  0
SECTION
  2
TABLES
  0
TABLE
  2
VPORT
  5
8
330
0
100
AcDbSymbolTable
 70
     4
  0
VPORT
  5
2E
330
8
100
AcDbSymbolTableRecord
100
AcDbViewportTableRecord
  2
*ACTIVE
 70
     0
 10
0.0
 20
0.0
 11
1.0
 21
1.0
 12
210.0
 22
148.5
 13
0.0
 23
0.0
 14
10.0
 24
10.0
 15
10.0
 25
10.0
 16
0.0
 26
0.0
 36
1.0
 17
0.0
 27
0.0
 37
0.0
 40
341.0
 41
1.24
 42
50.0
 43
0.0
 44
0.0
 50
0.0
 51
0.0
 71
     0
 72
   100
 73
     1
 74
     3
 75
     0
 76
     0
 77
     0
 78
     0
  0
ENDTAB
  0
TABLE
  2
LTYPE
  5
5
330
0
100
AcDbSymbolTable
 70
     1
  0
LTYPE
  5
14
330
5
100
AcDbSymbolTableRecord
100
AcDbLinetypeTableRecord
  2
BYBLOCK
 70
     0
  3

 72
    65
 73
     0
 40
0.0
  0
LTYPE
  5
15
330
5
100
AcDbSymbolTableRecord
100
AcDbLinetypeTableRecord
  2
BYLAYER
 70
     0
  3

 72
    65
 73
     0
 40
0.0
  0
LTYPE
  5
16
330
5
100
AcDbSymbolTableRecord
100
AcDbLinetypeTableRecord
  2
CONTINUOUS
 70
     0
  3
Solid line
 72
    65
 73
     0
 40
0.0
  0
ENDTAB
  0
TABLE
  2
LAYER
  5
2
100
AcDbSymbolTable
 70
2
  0
LAYER
  5
50
100
AcDbSymbolTableRecord
100
AcDbLayerTableRecord
  2
0
 70
0
  6
CONTINUOUS
  0
LAYER
  5
51
100
AcDbSymbolTableRecord
100
AcDbLayerTableRecord
  2
Layer_1
 70
0
  6
CONTINUOUS
  0
ENDTAB
  0
TABLE
  2
STYLE
  5
3
330
0
100
AcDbSymbolTable
 70
     1
  0
STYLE
  5
11
330
3
100
AcDbSymbolTableRecord
100
AcDbTextStyleTableRecord
  2
STANDARD
 70
     0
 40
0.0
 41
1.0
 50
0.0
 71
     0
 42
2.5
  3
txt
  4

  0
ENDTAB
  0
TABLE
  2
VIEW
  5
6
330
0
100
AcDbSymbolTable
 70
     0
  0
ENDTAB
  0
TABLE
  2
UCS
  5
7
330
0
100
AcDbSymbolTable
 70
     0
  0
ENDTAB
  0
TABLE
  2
APPID
  5
9
330
0
100
AcDbSymbolTable
 70
     2
  0
APPID
  5
12
330
9
100
AcDbSymbolTableRecord
100
AcDbRegAppTableRecord
  2
ACAD
 70
     0
  0
ENDTAB
  0
TABLE
  2
DIMSTYLE
  5
A
330
0
100
AcDbSymbolTable
 70
     1
  0
DIMSTYLE
105
27
330
A
100
AcDbSymbolTableRecord
100
AcDbDimStyleTableRecord
  2
ISO-25
 70
     0
  3

  4

  5

  6

  7

 40
1.0
 41
2.5
 42
0.625
 43
3.75
 44
1.25
 45
0.0
 46
0.0
 47
0.0
 48
0.0
140
2.5
141
2.5
142
0.0
143
0.03937007874016
144
1.0
145
0.0
146
1.0
147
0.625
 71
     0
 72
     0
 73
     0
 74
     0
 75
     0
 76
     0
 77
     1
 78
     8
170
     0
171
     3
172
     1
173
     0
174
     0
175
     0
176
     0
177
     0
178
     0
270
     2
271
     2
272
     2
273
     2
274
     3
340
11
275
     0
280
     0
281
     0
282
     0
283
     0
284
     8
285
     0
286
     0
287
     3
288
     0
  0
ENDTAB
  0
TABLE
  2
BLOCK_RECORD
  5
1
330
0
100
AcDbSymbolTable
 70
     1
  0
BLOCK_RECORD
  5
1F
330
1
100
AcDbSymbolTableRecord
100
AcDbBlockTableRecord
  2
*MODEL_SPACE
  0
BLOCK_RECORD
  5
1B
330
1
100
AcDbSymbolTableRecord
100
AcDbBlockTableRecord
  2
*PAPER_SPACE
  0
ENDTAB
  0
ENDSEC
  0
SECTION
  2
BLOCKS
  0
BLOCK
  5
20
330
1F
100
AcDbEntity
  8
0
100
AcDbBlockBegin
  2
*MODEL_SPACE
 70
     0
 10
0.0
 20
0.0
 30
0.0
  3
*MODEL_SPACE
  1

  0
ENDBLK
  5
21
330
1F
100
AcDbEntity
  8
0
100
AcDbBlockEnd
  0
BLOCK
  5
1C
330
1B
100
AcDbEntity
 67
     1
  8
0
100
AcDbBlockBegin
  2
*PAPER_SPACE
  1

  0
ENDBLK
  5
1D
330
1B
100
AcDbEntity
 67
     1
  8
0
100
AcDbBlockEnd
  0
ENDSEC
  0
SECTION
  2
ENTITIES
  0
SPLINE
  5
100
100
AcDbEntity
  8
Layer_1
 62
7
100
AcDbSpline
 70
8
 71
3
 72
8
 73
4
 74
0
 40
0
 40
0
 40
0
 40
0
 40
1
 40
1
 40
1
 40
1
 10
82.969985
 20
171.360930
 30
0.0
 10
82.896689
 20
171.360930
 30
0.0
 10
82.823892
 20
171.349129
 30
0.0
 10
82.767085
 20
171.315732
 30
0.0
  0
SPLINE
  5
101
100
AcDbEntity
  8
Layer_1
 62
7
100
AcDbSpline
 70
8
 71
3
 72
8
 73
4
 74
0
 40
0
 40
0
 40
0
 40
0
 40
1
 40
1
 40
1
 40
1
 10
82.767085
 20
171.315732
 30
0.0
 10
82.589677
 20
171.211437
 30
0.0
 10
82.527923
 20
170.963227
 30
0.0
 10
82.527923
 20
170.963227
 30
0.0
  0
SPLINE
  5
102
100
AcDbEntity
  8
Layer_1
 62
7
100
AcDbSpline
 70
8
 71
3
 72
8
 73
4
 74
0
 40
0
 40
0
 40
0
 40
0
 40
1
 40
1
 40
1
 40
1
 10
82.191443
 20
169.459442
 30
0.0
 10
82.191443
 20
169.459442
 30
0.0
 10
82.060643
 20
169.114485
 30
0.0
 10
82.195406
 20
168.902013
 30
0.0
  0
SPLINE
  5
103
100
AcDbEntity
  8
Layer_1
 62
7
100
AcDbSpline
 70
8
 71
3
 72
8
 73
4
 74
0
 40
0
 40
0
 40
0
 40
0
 40
1
 40
1
 40
1
 40
1
 10
82.195406
 20
168.902013
 30
0.0
 10
82.345754
 20
168.664974
 30
0.0
 10
82.670273
 20
168.618411
 30
0.0
 10
82.670273
 20
168.618411
 30
0.0
  0
LWPOLYLINE
  5
104
100
AcDbEntity
  8
Layer_1
 62
7
100
AcDbPolyline
 90
2
 70
1
 10
82.527923
 20
170.963227
 30
0.0
 10
82.191443
 20
169.459442
 30
0.0
  0
SPLINE
  5
105
100
AcDbEntity
  8
Layer_1
 62
7
100
AcDbSpline
 70
8
 71
3
 72
8
 73
4
 74
0
 40
0
 40
0
 40
0
 40
0
 40
1
 40
1
 40
1
 40
1
 10
84.765050
 20
168.497817
 30
0.0
 10
84.353863
 20
167.499815
 30
0.0
 10
83.342271
 20
164.748497
 30
0.0
 10
83.028932
 20
163.859285
 30
0.0
  0
SPLINE
  5
106
100
AcDbEntity
  8
Layer_1
 62
7
100
AcDbSpline
 70
8
 71
3
 72
8
 73
4
 74
0
 40
0
 40
0
 40
0
 40
0
 40
1
 40
1
 40
1
 40
1
 10
83.028932
 20
163.859285
 30
0.0
 10
82.460498
 20
161.176420
 30
0.0
 10
82.564761
 20
160.469645
 30
0.0
 10
82.338684
 20
157.595445
 30
0.0
  0
SPLINE
  5
107
100
AcDbEntity
  8
Layer_1
 62
7
100
AcDbSpline
 70
8
 71
3
 72
8
 73
4
 74
0
 40
0
 40
0
 40
0
 40
0
 40
1
 40
1
 40
1
 40
1
 10
82.338684
 20
157.595445
 30
0.0
 10
82.269562
 20
157.249823
 30
0.0
 10
82.235042
 20
157.016548
 30
0.0
 10
82.235042
 20
156.895583
 30
0.0
  0
SPLINE
  5
108
100
AcDbEntity
  8
Layer_1
 62
7
100
AcDbSpline
 70
8
 71
3
 72
8
 73
4
 74
0
 40
0
 40
0
 40
0
 40
0
 40
1
 40
1
 40
1
 40
1
 10
82.235042
 20
156.895583
 30
0.0
 10
82.235042
 20
156.731414
 30
0.0
 10
82.299819
 20
156.593173
 30
0.0
 10
82.429425
 20
156.480847
 30
0.0
  0
SPLINE
  5
109
100
AcDbEntity
  8
Layer_1
 62
7
100
AcDbSpline
 70
8
 71
3
 72
8
 73
4
 74
0
 40
0
 40
0
 40
0
 40
0
 40
1
 40
1
 40
1
 40
1
 10
82.429425
 20
156.480847
 30
0.0
 10
82.559030
 20
156.368521
 30
0.0
 10
82.718925
 20
156.312351
 30
0.0
 10
82.909014
 20
156.312351
 30
0.0
  0
SPLINE
  5
10a
100
AcDbEntity
  8
Layer_1
 62
7
100
AcDbSpline
 70
8
 71
3
 72
8
 73
4
 74
0
 40
0
 40
0
 40
0
 40
0
 40
1
 40
1
 40
1
 40
1
 10
82.909014
 20
156.312351
 30
0.0
 10
83.068861
 20
156.312351
 30
0.0
 10
83.245967
 20
156.420338
 30
0.0
 10
83.440382
 20
156.636350
 30
0.0
  0
SPLINE
  5
10b
100
AcDbEntity
  8
Layer_1
 62
7
100
AcDbSpline
 70
8
 71
3
 72
8
 73
4
 74
0
 40
0
 40
0
 40
0
 40
0
 40
1
 40
1
 40
1
 40
1
 10
83.440382
 20
156.636350
 30
0.0
 10
83.634793
 20
156.856680
 30
0.0
 10
83.937190
 20
157.321147
 30
0.0
 10
84.347613
 20
158.029666
 30
0.0
  0
SPLINE
  5
10c
100
AcDbEntity
  8
Layer_1
 62
7
100
AcDbSpline
 70
8
 71
3
 72
8
 73
4
 74
0
 40
0
 40
0
 40
0
 40
0
 40
1
 40
1
 40
1
 40
1
 10
84.347613
 20
158.029666
 30
0.0
 10
85.721452
 20
160.401477
 30
0.0
 10
86.635160
 20
161.587331
 30
0.0
 10
87.088785
 20
161.587331
 30
0.0
  0
SPLINE
  5
10d
100
AcDbEntity
  8
Layer_1
 62
7
100
AcDbSpline
 70
8
 71
3
 72
8
 73
4
 74
0
 40
0
 40
0
 40
0
 40
0
 40
1
 40
1
 40
1
 40
1
 10
87.088785
 20
161.587331
 30
0.0
 10
87.278874
 20
161.587331
 30
0.0
 10
87.414946
 20
161.449085
 30
0.0
 10
87.497031
 20
161.172590
 30
0.0
  0
SPLINE
  5
10e
100
AcDbEntity
  8
Layer_1
 62
7
100
AcDbSpline
 70
8
 71
3
 72
8
 73
4
 74
0
 40
0
 40
0
 40
0
 40
0
 40
1
 40
1
 40
1
 40
1
 10
87.497031
 20
161.172590
 30
0.0
 10
87.579115
 20
160.896095
 30
0.0
 10
87.656929
 20
160.308603
 30
0.0
 10
87.730374
 20
159.409991
 30
0.0
  0
SPLINE
  5
10f
100
AcDbEntity
  8
Layer_1
 62
7
100
AcDbSpline
 70
8
 71
3
 72
8
 73
4
 74
0
 40
0
 40
0
 40
0
 40
0
 40
1
 40
1
 40
1
 40
1
 10
87.730374
 20
159.409991
 30
0.0
 10
87.803819
 20
158.459540
 30
0.0
 10
87.970144
 20
157.794147
 30
0.0
 10
88.229360
 20
157.413966
 30
0.0
  0
SPLINE
  5
110
100
AcDbEntity
  8
Layer_1
 62
7
100
AcDbSpline
 70
8
 71
3
 72
8
 73
4
 74
0
 40
0
 40
0
 40
0
 40
0
 40
1
 40
1
 40
1
 40
1
 10
88.229360
 20
157.413966
 30
0.0
 10
88.488575
 20
157.038107
 30
0.0
 10
88.786626
 20
156.850216
 30
0.0
 10
89.123603
 20
156.850216
 30
0.0
  0
SPLINE
  5
111
100
AcDbEntity
  8
Layer_1
 62
7
100
AcDbSpline
 70
8
 71
3
 72
8
 73
4
 74
0
 40
0
 40
0
 40
0
 40
0
 40
1
 40
1
 40
1
 40
1
 10
89.123603
 20
156.850216
 30
0.0
 10
89.270493
 20
156.850216
 30
0.0
 10
89.408821
 20
156.897772
 30
0.0
 10
89.538427
 20
156.992818
 30
0.0
  0
SPLINE
  5
112
100
AcDbEntity
  8
Layer_1
 62
7
100
AcDbSpline
 70
8
 71
3
 72
8
 73
4
 74
0
 40
0
 40
0
 40
0
 40
0
 40
1
 40
1
 40
1
 40
1
 10
89.538427
 20
156.992818
 30
0.0
 10
89.668032
 20
157.087864
 30
0.0
 10
89.732809
 20
157.191503
 30
0.0
 10
89.732809
 20
157.303829
 30
0.0
  0
SPLINE
  5
113
100
AcDbEntity
  8
Layer_1
 62
7
100
AcDbSpline
 70
8
 71
3
 72
8
 73
4
 74
0
 40
0
 40
0
 40
0
 40
0
 40
1
 40
1
 40
1
 40
1
 10
89.732809
 20
157.303829
 30
0.0
 10
89.732809
 20
157.429117
 30
0.0
 10
89.635604
 20
157.623527
 30
0.0
 10
89.441193
 20
157.887060
 30
0.0
  0
SPLINE
  5
114
100
AcDbEntity
  8
Layer_1
 62
7
100
AcDbSpline
 70
8
 71
3
 72
8
 73
4
 74
0
 40
0
 40
0
 40
0
 40
0
 40
1
 40
1
 40
1
 40
1
 10
89.441193
 20
157.887060
 30
0.0
 10
89.061012
 20
158.401169
 30
0.0
 10
88.816873
 20
159.234976
 30
0.0
 10
88.708864
 20
160.388481
 30
0.0
  0
SPLINE
  5
115
100
AcDbEntity
  8
Layer_1
 62
7
100
AcDbSpline
 70
8
 71
3
 72
8
 73
4
 74
0
 40
0
 40
0
 40
0
 40
0
 40
1
 40
1
 40
1
 40
1
 10
88.708864
 20
160.388481
 30
0.0
 10
88.600861
 20
161.472859
 30
0.0
 10
88.460525
 20
162.172768
 30
0.0
 10
88.287716
 20
162.488149
 30
0.0
  0
SPLINE
  5
116
100
AcDbEntity
  8
Layer_1
 62
7
100
AcDbSpline
 70
8
 71
3
 72
8
 73
4
 74
0
 40
0
 40
0
 40
0
 40
0
 40
1
 40
1
 40
1
 40
1
 10
88.287716
 20
162.488149
 30
0.0
 10
88.114908
 20
162.803525
 30
0.0
 10
87.890240
 20
162.961161
 30
0.0
 10
87.613745
 20
162.961161
 30
0.0
  0
SPLINE
  5
117
100
AcDbEntity
  8
Layer_1
 62
7
100
AcDbSpline
 70
8
 71
3
 72
8
 73
4
 74
0
 40
0
 40
0
 40
0
 40
0
 40
1
 40
1
 40
1
 40
1
 10
87.613745
 20
162.961161
 30
0.0
 10
86.572570
 20
162.961161
 30
0.0
 10
85.248384
 20
161.477172
 30
0.0
 10
83.641258
 20
158.509168
 30
0.0
  0
LWPOLYLINE
  5
118
100
AcDbEntity
  8
Layer_1
 62
7
100
AcDbPolyline
 90
4
 70
1
 10
82.670273
 20
168.618411
 30
0.0
 10
83.329487
 20
168.470831
 30
0.0
 10
83.403698
 20
168.802502
 30
0.0
 10
84.765050
 20
168.497817
 30
0.0
  0
SPLINE
  5
119
100
AcDbEntity
  8
Layer_1
 62
7
100
AcDbSpline
 70
8
 71
3
 72
8
 73
4
 74
0
 40
0
 40
0
 40
0
 40
0
 40
1
 40
1
 40
1
 40
1
 10
83.615368
 20
158.509168
 30
0.0
 10
83.567847
 20
158.509168
 30
0.0
 10
83.544025
 20
158.535079
 30
0.0
 10
83.544025
 20
158.586922
 30
0.0
  0
SPLINE
  5
11a
100
AcDbEntity
  8
Layer_1
 62
7
100
AcDbSpline
 70
8
 71
3
 72
8
 73
4
 74
0
 40
0
 40
0
 40
0
 40
0
 40
1
 40
1
 40
1
 40
1
 10
83.544025
 20
158.586922
 30
0.0
 10
83.544025
 20
158.837493
 30
0.0
 10
83.649925
 20
159.492023
 30
0.0
 10
83.861615
 20
160.550482
 30
0.0
  0
SPLINE
  5
11b
100
AcDbEntity
  8
Layer_1
 62
7
100
AcDbSpline
 70
8
 71
3
 72
8
 73
4
 74
0
 40
0
 40
0
 40
0
 40
0
 40
1
 40
1
 40
1
 40
1
 10
83.861615
 20
160.550482
 30
0.0
 10
84.073309
 20
161.608941
 30
0.0
 10
84.274154
 20
162.481612
 30
0.0
 10
84.464242
 20
163.168529
 30
0.0
  0
SPLINE
  5
11c
100
AcDbEntity
  8
Layer_1
 62
7
100
AcDbSpline
 70
8
 71
3
 72
8
 73
4
 74
0
 40
0
 40
0
 40
0
 40
0
 40
1
 40
1
 40
1
 40
1
 10
84.464242
 20
163.168529
 30
0.0
 10
84.837722
 20
164.500611
 30
0.0
 10
85.956747
 20
167.288976
 30
0.0
 10
86.044517
 20
168.211512
 30
0.0
  0
LWPOLYLINE
  5
11d
100
AcDbEntity
  8
Layer_1
 62
7
100
AcDbPolyline
 90
2
 70
1
 10
83.641258
 20
158.509168
 30
0.0
 10
83.615368
 20
158.509168
 30
0.0
  0
SPLINE
  5
11e
100
AcDbEntity
  8
Layer_1
 62
7
100
AcDbSpline
 70
8
 71
3
 72
8
 73
4
 74
0
 40
0
 40
0
 40
0
 40
0
 40
1
 40
1
 40
1
 40
1
 10
88.455450
 20
167.323677
 30
0.0
 10
88.455450
 20
167.323677
 30
0.0
 10
88.768920
 20
167.227556
 30
0.0
 10
89.005962
 20
167.377904
 30
0.0
  0
SPLINE
  5
11f
100
AcDbEntity
  8
Layer_1
 62
7
100
AcDbSpline
 70
8
 71
3
 72
8
 73
4
 74
0
 40
0
 40
0
 40
0
 40
0
 40
1
 40
1
 40
1
 40
1
 10
89.005962
 20
167.377904
 30
0.0
 10
89.218432
 20
167.512665
 30
0.0
 10
89.247148
 20
167.880432
 30
0.0
 10
89.247148
 20
167.880432
 30
0.0
  0
LWPOLYLINE
  5
120
100
AcDbEntity
  8
Layer_1
 62
7
100
AcDbPolyline
 90
4
 70
1
 10
86.044517
 20
168.211512
 30
0.0
 10
87.870532
 20
167.802847
 30
0.0
 10
87.796321
 20
167.471258
 30
0.0
 10
88.455450
 20
167.323677
 30
0.0
  0
SPLINE
  5
121
100
AcDbEntity
  8
Layer_1
 62
7
100
AcDbSpline
 70
8
 71
3
 72
8
 73
4
 74
0
 40
0
 40
0
 40
0
 40
0
 40
1
 40
1
 40
1
 40
1
 10
89.583712
 20
169.384218
 30
0.0
 10
89.583712
 20
169.384218
 30
0.0
 10
89.633707
 20
169.635061
 30
0.0
 10
89.517681
 20
169.805029
 30
0.0
  0
SPLINE
  5
122
100
AcDbEntity
  8
Layer_1
 62
7
100
AcDbSpline
 70
8
 71
3
 72
8
 73
4
 74
0
 40
0
 40
0
 40
0
 40
0
 40
1
 40
1
 40
1
 40
1
 10
89.517681
 20
169.805029
 30
0.0
 10
89.398791
 20
169.979189
 30
0.0
 10
89.036321
 20
170.021421
 30
0.0
 10
89.036321
 20
170.021421
 30
0.0
  0
LWPOLYLINE
  5
123
100
AcDbEntity
  8
Layer_1
 62
7
100
AcDbPolyline
 90
2
 70
1
 10
89.247148
 20
167.880432
 30
0.0
 10
89.583712
 20
169.384218
 30
0.0
  0
SPLINE
  5
124
100
AcDbEntity
  8
Layer_1
 62
7
100
AcDbSpline
 70
8
 71
3
 72
8
 73
4
 74
0
 40
0
 40
0
 40
0
 40
0
 40
1
 40
1
 40
1
 40
1
 10
83.294743
 20
171.306371
 30
0.0
 10
83.294743
 20
171.306371
 30
0.0
 10
83.131234
 20
171.361318
 30
0.0
 10
82.969985
 20
171.360930
 30
0.0
  0
LWPOLYLINE
  5
125
100
AcDbEntity
  8
Layer_1
 62
7
100
AcDbPolyline
 90
6
 70
1
 10
89.036321
 20
170.021421
 30
0.0
 10
88.398949
 20
170.164109
 30
0.0
 10
88.345905
 20
169.927221
 30
0.0
 10
83.879071
 20
170.926881
 30
0.0
 10
83.932115
 20
171.163765
 30
0.0
 10
83.294743
 20
171.306371
 30
0.0
  0
SPLINE
  5
126
100
AcDbEntity
  8
Layer_1
 62
7
100
AcDbSpline
 70
8
 71
3
 72
8
 73
4
 74
0
 40
0
 40
0
 40
0
 40
0
 40
1
 40
1
 40
1
 40
1
 10
92.985934
 20
165.242278
 30
0.0
 10
92.895210
 20
165.242278
 30
0.0
 10
92.826086
 20
165.339484
 30
0.0
 10
92.778562
 20
165.533898
 30
0.0
  0
SPLINE
  5
127
100
AcDbEntity
  8
Layer_1
 62
7
100
AcDbSpline
 70
8
 71
3
 72
8
 73
4
 74
0
 40
0
 40
0
 40
0
 40
0
 40
1
 40
1
 40
1
 40
1
 10
92.778562
 20
165.533898
 30
0.0
 10
92.761282
 20
165.594380
 30
0.0
 10
92.737522
 20
165.661343
 30
0.0
 10
92.707280
 20
165.734785
 30
0.0
  0
SPLINE
  5
128
100
AcDbEntity
  8
Layer_1
 62
7
100
AcDbSpline
 70
8
 71
3
 72
8
 73
4
 74
0
 40
0
 40
0
 40
0
 40
0
 40
1
 40
1
 40
1
 40
1
 10
92.707280
 20
165.734785
 30
0.0
 10
92.590632
 20
166.015602
 30
0.0
 10
92.532308
 20
166.259696
 30
0.0
 10
92.532308
 20
166.467068
 30
0.0
  0
SPLINE
  5
129
100
AcDbEntity
  8
Layer_1
 62
7
100
AcDbSpline
 70
8
 71
3
 72
8
 73
4
 74
0
 40
0
 40
0
 40
0
 40
0
 40
1
 40
1
 40
1
 40
1
 10
92.532308
 20
166.467068
 30
0.0
 10
92.532308
 20
166.639876
 30
0.0
 10
92.633834
 20
166.814845
 30
0.0
 10
92.836886
 20
166.991976
 30
0.0
  0
SPLINE
  5
12a
100
AcDbEntity
  8
Layer_1
 62
7
100
AcDbSpline
 70
8
 71
3
 72
8
 73
4
 74
0
 40
0
 40
0
 40
0
 40
0
 40
1
 40
1
 40
1
 40
1
 10
92.836886
 20
166.991976
 30
0.0
 10
93.044258
 20
167.173427
 30
0.0
 10
93.273230
 20
167.264153
 30
0.0
 10
93.523803
 20
167.264153
 30
0.0
  0
SPLINE
  5
12b
100
AcDbEntity
  8
Layer_1
 62
7
100
AcDbSpline
 70
8
 71
3
 72
8
 73
4
 74
0
 40
0
 40
0
 40
0
 40
0
 40
1
 40
1
 40
1
 40
1
 10
93.523803
 20
167.264153
 30
0.0
 10
93.649092
 20
167.264153
 30
0.0
 10
93.789501
 20
167.214470
 30
0.0
 10
93.945029
 20
167.115105
 30
0.0
  0
SPLINE
  5
12c
100
AcDbEntity
  8
Layer_1
 62
7
100
AcDbSpline
 70
8
 71
3
 72
8
 73
4
 74
0
 40
0
 40
0
 40
0
 40
0
 40
1
 40
1
 40
1
 40
1
 10
93.945029
 20
167.115105
 30
0.0
 10
94.100556
 20
167.020060
 30
0.0
 10
94.178320
 20
166.927174
 30
0.0
 10
94.178320
 20
166.836447
 30
0.0
  0
SPLINE
  5
12d
100
AcDbEntity
  8
Layer_1
 62
7
100
AcDbSpline
 70
8
 71
3
 72
8
 73
4
 74
0
 40
0
 40
0
 40
0
 40
0
 40
1
 40
1
 40
1
 40
1
 10
94.178320
 20
166.836447
 30
0.0
 10
94.178320
 20
166.693881
 30
0.0
 10
94.124317
 20
166.451948
 30
0.0
 10
94.016310
 20
166.110648
 30
0.0
  0
SPLINE
  5
12e
100
AcDbEntity
  8
Layer_1
 62
7
100
AcDbSpline
 70
8
 71
3
 72
8
 73
4
 74
0
 40
0
 40
0
 40
0
 40
0
 40
1
 40
1
 40
1
 40
1
 10
94.016310
 20
166.110648
 30
0.0
 10
93.912627
 20
165.769348
 30
0.0
 10
93.744139
 20
165.538215
 30
0.0
 10
93.510846
 20
165.417250
 30
0.0
  0
SPLINE
  5
12f
100
AcDbEntity
  8
Layer_1
 62
7
100
AcDbSpline
 70
8
 71
3
 72
8
 73
4
 74
0
 40
0
 40
0
 40
0
 40
0
 40
1
 40
1
 40
1
 40
1
 10
93.510846
 20
165.417250
 30
0.0
 10
93.281873
 20
165.300602
 30
0.0
 10
93.106903
 20
165.242278
 30
0.0
 10
92.985934
 20
165.242278
 30
0.0
  0
LWPOLYLINE
  5
130
100
AcDbEntity
  8
Layer_1
 62
7
100
AcDbPolyline
 90
2
 70
1
 10
82.969985
 20
171.360930
 30
0.0
 10
82.969985
 20
171.360930
 30
0.0
  0
SPLINE
  5
131
100
AcDbEntity
  8
Layer_1
 62
7
100
AcDbSpline
 70
8
 71
3
 72
8
 73
4
 74
0
 40
0
 40
0
 40
0
 40
0
 40
1
 40
1
 40
1
 40
1
 10
92.137006
 20
158.003717
 30
0.0
 10
92.137006
 20
157.675379
 30
0.0
 10
92.182370
 20
157.305999
 30
0.0
 10
92.273097
 20
156.895578
 30
0.0
  0
SPLINE
  5
132
100
AcDbEntity
  8
Layer_1
 62
7
100
AcDbSpline
 70
8
 71
3
 72
8
 73
4
 74
0
 40
0
 40
0
 40
0
 40
0
 40
1
 40
1
 40
1
 40
1
 10
92.273097
 20
156.895578
 30
0.0
 10
92.290377
 20
156.817813
 30
0.0
 10
92.299017
 20
156.753009
 30
0.0
 10
92.299017
 20
156.701168
 30
0.0
  0
SPLINE
  5
133
100
AcDbEntity
  8
Layer_1
 62
7
100
AcDbSpline
 70
8
 71
3
 72
8
 73
4
 74
0
 40
0
 40
0
 40
0
 40
0
 40
1
 40
1
 40
1
 40
1
 10
92.299017
 20
156.701168
 30
0.0
 10
92.299017
 20
156.623403
 30
0.0
 10
92.227732
 20
156.524037
 30
0.0
 10
92.085163
 20
156.403071
 30
0.0
  0
SPLINE
  5
134
100
AcDbEntity
  8
Layer_1
 62
7
100
AcDbSpline
 70
8
 71
3
 72
8
 73
4
 74
0
 40
0
 40
0
 40
0
 40
0
 40
1
 40
1
 40
1
 40
1
 10
92.085163
 20
156.403071
 30
0.0
 10
91.942597
 20
156.277782
 30
0.0
 10
91.791389
 20
156.215137
 30
0.0
 10
91.631538
 20
156.215137
 30
0.0
  0
SPLINE
  5
135
100
AcDbEntity
  8
Layer_1
 62
7
100
AcDbSpline
 70
8
 71
3
 72
8
 73
4
 74
0
 40
0
 40
0
 40
0
 40
0
 40
1
 40
1
 40
1
 40
1
 10
91.631538
 20
156.215137
 30
0.0
 10
91.212475
 20
156.215137
 30
0.0
 10
91.002944
 20
156.599639
 30
0.0
 10
91.002944
 20
157.368642
 30
0.0
  0
SPLINE
  5
136
100
AcDbEntity
  8
Layer_1
 62
7
100
AcDbSpline
 70
8
 71
3
 72
8
 73
4
 74
0
 40
0
 40
0
 40
0
 40
0
 40
1
 40
1
 40
1
 40
1
 10
91.002944
 20
157.368642
 30
0.0
 10
91.002944
 20
158.163567
 30
0.0
 10
91.167113
 20
159.420756
 30
0.0
 10
91.495451
 20
161.140212
 30
0.0
  0
SPLINE
  5
137
100
AcDbEntity
  8
Layer_1
 62
7
100
AcDbSpline
 70
8
 71
3
 72
8
 73
4
 74
0
 40
0
 40
0
 40
0
 40
0
 40
1
 40
1
 40
1
 40
1
 10
91.495451
 20
161.140212
 30
0.0
 10
91.607779
 20
161.740725
 30
0.0
 10
91.663942
 20
162.110106
 30
0.0
 10
91.663942
 20
162.248354
 30
0.0
  0
SPLINE
  5
138
100
AcDbEntity
  8
Layer_1
 62
7
100
AcDbSpline
 70
8
 71
3
 72
8
 73
4
 74
0
 40
0
 40
0
 40
0
 40
0
 40
1
 40
1
 40
1
 40
1
 10
91.663942
 20
162.248354
 30
0.0
 10
91.663942
 20
162.520527
 30
0.0
 10
91.713625
 20
162.751660
 30
0.0
 10
91.812991
 20
162.941753
 30
0.0
  0
SPLINE
  5
139
100
AcDbEntity
  8
Layer_1
 62
7
100
AcDbSpline
 70
8
 71
3
 72
8
 73
4
 74
0
 40
0
 40
0
 40
0
 40
0
 40
1
 40
1
 40
1
 40
1
 10
91.812991
 20
162.941753
 30
0.0
 10
91.912356
 20
163.136163
 30
0.0
 10
92.052763
 20
163.233368
 30
0.0
 10
92.234212
 20
163.233368
 30
0.0
  0
SPLINE
  5
13a
100
AcDbEntity
  8
Layer_1
 62
7
100
AcDbSpline
 70
8
 71
3
 72
8
 73
4
 74
0
 40
0
 40
0
 40
0
 40
0
 40
1
 40
1
 40
1
 40
1
 10
92.234212
 20
163.233368
 30
0.0
 10
92.454546
 20
163.233368
 30
0.0
 10
92.627356
 20
163.179365
 30
0.0
 10
92.752642
 20
163.071358
 30
0.0
  0
SPLINE
  5
13b
100
AcDbEntity
  8
Layer_1
 62
7
100
AcDbSpline
 70
8
 71
3
 72
8
 73
4
 74
0
 40
0
 40
0
 40
0
 40
0
 40
1
 40
1
 40
1
 40
1
 10
92.752642
 20
163.071358
 30
0.0
 10
92.882249
 20
162.967672
 30
0.0
 10
92.947053
 20
162.851026
 30
0.0
 10
92.947053
 20
162.721419
 30
0.0
  0
SPLINE
  5
13c
100
AcDbEntity
  8
Layer_1
 62
7
100
AcDbSpline
 70
8
 71
3
 72
8
 73
4
 74
0
 40
0
 40
0
 40
0
 40
0
 40
1
 40
1
 40
1
 40
1
 10
92.947053
 20
162.721419
 30
0.0
 10
92.947053
 20
162.591812
 30
0.0
 10
92.916811
 20
162.421163
 30
0.0
 10
92.856328
 20
162.209473
 30
0.0
  0
SPLINE
  5
13d
100
AcDbEntity
  8
Layer_1
 62
7
100
AcDbSpline
 70
8
 71
3
 72
8
 73
4
 74
0
 40
0
 40
0
 40
0
 40
0
 40
1
 40
1
 40
1
 40
1
 10
92.856328
 20
162.209473
 30
0.0
 10
92.532311
 20
161.068929
 30
0.0
 10
92.331420
 20
160.252403
 30
0.0
 10
92.253654
 20
159.759896
 30
0.0
  0
SPLINE
  5
13e
100
AcDbEntity
  8
Layer_1
 62
7
100
AcDbSpline
 70
8
 71
3
 72
8
 73
4
 74
0
 40
0
 40
0
 40
0
 40
0
 40
1
 40
1
 40
1
 40
1
 10
92.253654
 20
159.759896
 30
0.0
 10
92.175889
 20
159.267389
 30
0.0
 10
92.137006
 20
158.681996
 30
0.0
 10
92.137006
 20
158.003717
 30
0.0
  0
LWPOLYLINE
  5
13f
100
AcDbEntity
  8
Layer_1
 62
7
100
AcDbPolyline
 90
2
 70
1
 10
92.985934
 20
165.242278
 30
0.0
 10
92.985934
 20
165.242278
 30
0.0
  0
SPLINE
  5
140
100
AcDbEntity
  8
Layer_1
 62
7
100
AcDbSpline
 70
8
 71
3
 72
8
 73
4
 74
0
 40
0
 40
0
 40
0
 40
0
 40
1
 40
1
 40
1
 40
1
 10
97.373139
 20
163.103759
 30
0.0
 10
97.818122
 20
163.138321
 30
0.0
 10
98.237186
 20
163.179364
 30
0.0
 10
98.630330
 20
163.226888
 30
0.0
  0
SPLINE
  5
141
100
AcDbEntity
  8
Layer_1
 62
7
100
AcDbSpline
 70
8
 71
3
 72
8
 73
4
 74
0
 40
0
 40
0
 40
0
 40
0
 40
1
 40
1
 40
1
 40
1
 10
98.630330
 20
163.226888
 30
0.0
 10
99.019151
 20
163.270091
 30
0.0
 10
99.343168
 20
163.291692
 30
0.0
 10
99.602382
 20
163.291692
 30
0.0
  0
SPLINE
  5
142
100
AcDbEntity
  8
Layer_1
 62
7
100
AcDbSpline
 70
8
 71
3
 72
8
 73
4
 74
0
 40
0
 40
0
 40
0
 40
0
 40
1
 40
1
 40
1
 40
1
 10
99.602382
 20
163.291692
 30
0.0
 10
99.930720
 20
163.291692
 30
0.0
 10
100.138091
 20
163.261451
 30
0.0
 10
100.224495
 20
163.200968
 30
0.0
  0
SPLINE
  5
143
100
AcDbEntity
  8
Layer_1
 62
7
100
AcDbSpline
 70
8
 71
3
 72
8
 73
4
 74
0
 40
0
 40
0
 40
0
 40
0
 40
1
 40
1
 40
1
 40
1
 10
100.224495
 20
163.200968
 30
0.0
 10
100.310901
 20
163.140482
 30
0.0
 10
100.354105
 20
163.034636
 30
0.0
 10
100.354105
 20
162.883429
 30
0.0
  0
SPLINE
  5
144
100
AcDbEntity
  8
Layer_1
 62
7
100
AcDbSpline
 70
8
 71
3
 72
8
 73
4
 74
0
 40
0
 40
0
 40
0
 40
0
 40
1
 40
1
 40
1
 40
1
 10
100.354105
 20
162.883429
 30
0.0
 10
100.354105
 20
162.533491
 30
0.0
 10
100.110011
 20
162.343399
 30
0.0
 10
99.621825
 20
162.313155
 30
0.0
  0
SPLINE
  5
145
100
AcDbEntity
  8
Layer_1
 62
7
100
AcDbSpline
 70
8
 71
3
 72
8
 73
4
 74
0
 40
0
 40
0
 40
0
 40
0
 40
1
 40
1
 40
1
 40
1
 10
99.621825
 20
162.313155
 30
0.0
 10
98.995391
 20
162.274275
 30
0.0
 10
98.418637
 20
162.220273
 30
0.0
 10
97.891565
 20
162.151149
 30
0.0
  0
SPLINE
  5
146
100
AcDbEntity
  8
Layer_1
 62
7
100
AcDbSpline
 70
8
 71
3
 72
8
 73
4
 74
0
 40
0
 40
0
 40
0
 40
0
 40
1
 40
1
 40
1
 40
1
 10
97.891565
 20
162.151149
 30
0.0
 10
97.364496
 20
162.082025
 30
0.0
 10
97.079362
 20
162.023701
 30
0.0
 10
97.036161
 20
161.976177
 30
0.0
  0
SPLINE
  5
147
100
AcDbEntity
  8
Layer_1
 62
7
100
AcDbSpline
 70
8
 71
3
 72
8
 73
4
 74
0
 40
0
 40
0
 40
0
 40
0
 40
1
 40
1
 40
1
 40
1
 10
97.036161
 20
161.976177
 30
0.0
 10
96.997279
 20
161.932977
 30
0.0
 10
96.867672
 20
161.418868
 30
0.0
 10
96.647340
 20
160.433851
 30
0.0
  0
SPLINE
  5
148
100
AcDbEntity
  8
Layer_1
 62
7
100
AcDbSpline
 70
8
 71
3
 72
8
 73
4
 74
0
 40
0
 40
0
 40
0
 40
0
 40
1
 40
1
 40
1
 40
1
 10
96.647340
 20
160.433851
 30
0.0
 10
96.427006
 20
159.453158
 30
0.0
 10
96.316839
 20
158.815923
 30
0.0
 10
96.316839
 20
158.522147
 30
0.0
  0
SPLINE
  5
149
100
AcDbEntity
  8
Layer_1
 62
7
100
AcDbSpline
 70
8
 71
3
 72
8
 73
4
 74
0
 40
0
 40
0
 40
0
 40
0
 40
1
 40
1
 40
1
 40
1
 10
96.316839
 20
158.522147
 30
0.0
 10
96.316839
 20
158.046920
 30
0.0
 10
96.379482
 20
157.729382
 30
0.0
 10
96.504769
 20
157.569534
 30
0.0
  0
SPLINE
  5
14a
100
AcDbEntity
  8
Layer_1
 62
7
100
AcDbSpline
 70
8
 71
3
 72
8
 73
4
 74
0
 40
0
 40
0
 40
0
 40
0
 40
1
 40
1
 40
1
 40
1
 10
96.504769
 20
157.569534
 30
0.0
 10
96.630058
 20
157.414006
 30
0.0
 10
96.817989
 20
157.336242
 30
0.0
 10
97.068562
 20
157.336242
 30
0.0
  0
SPLINE
  5
14b
100
AcDbEntity
  8
Layer_1
 62
7
100
AcDbSpline
 70
8
 71
3
 72
8
 73
4
 74
0
 40
0
 40
0
 40
0
 40
0
 40
1
 40
1
 40
1
 40
1
 10
97.068562
 20
157.336242
 30
0.0
 10
97.440103
 20
157.336242
 30
0.0
 10
97.956372
 20
157.614897
 30
0.0
 10
98.617368
 20
158.172208
 30
0.0
  0
SPLINE
  5
14c
100
AcDbEntity
  8
Layer_1
 62
7
100
AcDbSpline
 70
8
 71
3
 72
8
 73
4
 74
0
 40
0
 40
0
 40
0
 40
0
 40
1
 40
1
 40
1
 40
1
 10
98.617368
 20
158.172208
 30
0.0
 10
98.872262
 20
158.401180
 30
0.0
 10
99.068832
 20
158.515667
 30
0.0
 10
99.207081
 20
158.515667
 30
0.0
  0
SPLINE
  5
14d
100
AcDbEntity
  8
Layer_1
 62
7
100
AcDbSpline
 70
8
 71
3
 72
8
 73
4
 74
0
 40
0
 40
0
 40
0
 40
0
 40
1
 40
1
 40
1
 40
1
 10
99.207081
 20
158.515667
 30
0.0
 10
99.392850
 20
158.515667
 30
0.0
 10
99.485734
 20
158.416301
 30
0.0
 10
99.485734
 20
158.217570
 30
0.0
  0
SPLINE
  5
14e
100
AcDbEntity
  8
Layer_1
 62
7
100
AcDbSpline
 70
8
 71
3
 72
8
 73
4
 74
0
 40
0
 40
0
 40
0
 40
0
 40
1
 40
1
 40
1
 40
1
 10
99.485734
 20
158.217570
 30
0.0
 10
99.485734
 20
157.906512
 30
0.0
 10
99.185479
 20
157.502569
 30
0.0
 10
98.584968
 20
157.005741
 30
0.0
  0
SPLINE
  5
14f
100
AcDbEntity
  8
Layer_1
 62
7
100
AcDbSpline
 70
8
 71
3
 72
8
 73
4
 74
0
 40
0
 40
0
 40
0
 40
0
 40
1
 40
1
 40
1
 40
1
 10
98.584968
 20
157.005741
 30
0.0
 10
97.988775
 20
156.513234
 30
0.0
 10
97.377460
 20
156.266981
 30
0.0
 10
96.751022
 20
156.266981
 30
0.0
  0
SPLINE
  5
150
100
AcDbEntity
  8
Layer_1
 62
7
100
AcDbSpline
 70
8
 71
3
 72
8
 73
4
 74
0
 40
0
 40
0
 40
0
 40
0
 40
1
 40
1
 40
1
 40
1
 10
96.751022
 20
156.266981
 30
0.0
 10
95.705525
 20
156.266981
 30
0.0
 10
95.182777
 20
156.882615
 30
0.0
 10
95.182777
 20
158.113884
 30
0.0
  0
SPLINE
  5
151
100
AcDbEntity
  8
Layer_1
 62
7
100
AcDbSpline
 70
8
 71
3
 72
8
 73
4
 74
0
 40
0
 40
0
 40
0
 40
0
 40
1
 40
1
 40
1
 40
1
 10
95.182777
 20
158.113884
 30
0.0
 10
95.182777
 20
158.558870
 30
0.0
 10
95.290784
 20
159.247948
 30
0.0
 10
95.506797
 20
160.181117
 30
0.0
  0
SPLINE
  5
152
100
AcDbEntity
  8
Layer_1
 62
7
100
AcDbSpline
 70
8
 71
3
 72
8
 73
4
 74
0
 40
0
 40
0
 40
0
 40
0
 40
1
 40
1
 40
1
 40
1
 10
95.506797
 20
160.181117
 30
0.0
 10
95.718487
 20
161.109969
 30
0.0
 10
95.824332
 20
161.667281
 30
0.0
 10
95.824332
 20
161.853053
 30
0.0
  0
SPLINE
  5
153
100
AcDbEntity
  8
Layer_1
 62
7
100
AcDbSpline
 70
8
 71
3
 72
8
 73
4
 74
0
 40
0
 40
0
 40
0
 40
0
 40
1
 40
1
 40
1
 40
1
 10
95.824332
 20
161.853053
 30
0.0
 10
95.824332
 20
161.917856
 30
0.0
 10
95.772489
 20
161.950258
 30
0.0
 10
95.668803
 20
161.950258
 30
0.0
  0
LWPOLYLINE
  5
154
100
AcDbEntity
  8
Layer_1
 62
7
100
AcDbPolyline
 90
2
 70
1
 10
92.137006
 20
158.003717
 30
0.0
 10
92.137006
 20
158.003717
 30
0.0
  0
SPLINE
  5
155
100
AcDbEntity
  8
Layer_1
 62
7
100
AcDbSpline
 70
8
 71
3
 72
8
 73
4
 74
0
 40
0
 40
0
 40
0
 40
0
 40
1
 40
1
 40
1
 40
1
 10
94.994847
 20
161.891934
 30
0.0
 10
94.441858
 20
161.891934
 30
0.0
 10
94.165363
 20
162.112267
 30
0.0
 10
94.165363
 20
162.552932
 30
0.0
  0
SPLINE
  5
156
100
AcDbEntity
  8
Layer_1
 62
7
100
AcDbSpline
 70
8
 71
3
 72
8
 73
4
 74
0
 40
0
 40
0
 40
0
 40
0
 40
1
 40
1
 40
1
 40
1
 10
94.165363
 20
162.552932
 30
0.0
 10
94.165363
 20
162.803505
 30
0.0
 10
94.292809
 20
162.928791
 30
0.0
 10
94.547703
 20
162.928791
 30
0.0
  0
LWPOLYLINE
  5
157
100
AcDbEntity
  8
Layer_1
 62
7
100
AcDbPolyline
 90
2
 70
1
 10
95.668803
 20
161.950258
 30
0.0
 10
94.994847
 20
161.891934
 30
0.0
  0
SPLINE
  5
158
100
AcDbEntity
  8
Layer_1
 62
7
100
AcDbSpline
 70
8
 71
3
 72
8
 73
4
 74
0
 40
0
 40
0
 40
0
 40
0
 40
1
 40
1
 40
1
 40
1
 10
95.882656
 20
162.928791
 30
0.0
 10
95.973381
 20
162.928791
 30
0.0
 10
96.053305
 20
162.969834
 30
0.0
 10
96.122429
 20
163.051920
 30
0.0
  0
SPLINE
  5
159
100
AcDbEntity
  8
Layer_1
 62
7
100
AcDbSpline
 70
8
 71
3
 72
8
 73
4
 74
0
 40
0
 40
0
 40
0
 40
0
 40
1
 40
1
 40
1
 40
1
 10
96.122429
 20
163.051920
 30
0.0
 10
96.191553
 20
163.134003
 30
0.0
 10
96.293079
 20
163.408338
 30
0.0
 10
96.427006
 20
163.874924
 30
0.0
  0
SPLINE
  5
15a
100
AcDbEntity
  8
Layer_1
 62
7
100
AcDbSpline
 70
8
 71
3
 72
8
 73
4
 74
0
 40
0
 40
0
 40
0
 40
0
 40
1
 40
1
 40
1
 40
1
 10
96.427006
 20
163.874924
 30
0.0
 10
96.560934
 20
164.345831
 30
0.0
 10
96.679741
 20
164.810256
 30
0.0
 10
96.783427
 20
165.268201
 30
0.0
  0
SPLINE
  5
15b
100
AcDbEntity
  8
Layer_1
 62
7
100
AcDbSpline
 70
8
 71
3
 72
8
 73
4
 74
0
 40
0
 40
0
 40
0
 40
0
 40
1
 40
1
 40
1
 40
1
 10
96.783427
 20
165.268201
 30
0.0
 10
96.887113
 20
165.721826
 30
0.0
 10
97.090165
 20
165.948638
 30
0.0
 10
97.392582
 20
165.948638
 30
0.0
  0
SPLINE
  5
15c
100
AcDbEntity
  8
Layer_1
 62
7
100
AcDbSpline
 70
8
 71
3
 72
8
 73
4
 74
0
 40
0
 40
0
 40
0
 40
0
 40
1
 40
1
 40
1
 40
1
 10
97.392582
 20
165.948638
 30
0.0
 10
97.578351
 20
165.948638
 30
0.0
 10
97.723079
 20
165.883834
 30
0.0
 10
97.826765
 20
165.754227
 30
0.0
  0
SPLINE
  5
15d
100
AcDbEntity
  8
Layer_1
 62
7
100
AcDbSpline
 70
8
 71
3
 72
8
 73
4
 74
0
 40
0
 40
0
 40
0
 40
0
 40
1
 40
1
 40
1
 40
1
 10
97.826765
 20
165.754227
 30
0.0
 10
97.930451
 20
165.624620
 30
0.0
 10
97.982294
 20
165.503653
 30
0.0
 10
97.982294
 20
165.391326
 30
0.0
  0
SPLINE
  5
15e
100
AcDbEntity
  8
Layer_1
 62
7
100
AcDbSpline
 70
8
 71
3
 72
8
 73
4
 74
0
 40
0
 40
0
 40
0
 40
0
 40
1
 40
1
 40
1
 40
1
 10
97.982294
 20
165.391326
 30
0.0
 10
97.982294
 20
165.330843
 30
0.0
 10
97.904529
 20
165.021946
 30
0.0
 10
97.748998
 20
164.464636
 30
0.0
  0
LWPOLYLINE
  5
15f
100
AcDbEntity
  8
Layer_1
 62
7
100
AcDbPolyline
 90
2
 70
1
 10
94.547703
 20
162.928791
 30
0.0
 10
95.882656
 20
162.928791
 30
0.0
  0
SPLINE
  5
160
100
AcDbEntity
  8
Layer_1
 62
7
100
AcDbSpline
 70
8
 71
3
 72
8
 73
4
 74
0
 40
0
 40
0
 40
0
 40
0
 40
1
 40
1
 40
1
 40
1
 10
101.449286
 20
161.516071
 30
0.0
 10
101.311037
 20
161.516071
 30
0.0
 10
101.194391
 20
161.608957
 30
0.0
 10
101.099346
 20
161.794729
 30
0.0
  0
SPLINE
  5
161
100
AcDbEntity
  8
Layer_1
 62
7
100
AcDbSpline
 70
8
 71
3
 72
8
 73
4
 74
0
 40
0
 40
0
 40
0
 40
0
 40
1
 40
1
 40
1
 40
1
 10
101.099346
 20
161.794729
 30
0.0
 10
101.004298
 20
161.980498
 30
0.0
 10
100.956774
 20
162.153307
 30
0.0
 10
100.956774
 20
162.313155
 30
0.0
  0
SPLINE
  5
162
100
AcDbEntity
  8
Layer_1
 62
7
100
AcDbSpline
 70
8
 71
3
 72
8
 73
4
 74
0
 40
0
 40
0
 40
0
 40
0
 40
1
 40
1
 40
1
 40
1
 10
100.956774
 20
162.313155
 30
0.0
 10
100.956774
 20
162.524848
 30
0.0
 10
101.006457
 20
162.948232
 30
0.0
 10
101.105823
 20
163.583308
 30
0.0
  0
SPLINE
  5
163
100
AcDbEntity
  8
Layer_1
 62
7
100
AcDbSpline
 70
8
 71
3
 72
8
 73
4
 74
0
 40
0
 40
0
 40
0
 40
0
 40
1
 40
1
 40
1
 40
1
 10
101.105823
 20
163.583308
 30
0.0
 10
101.209509
 20
164.218384
 30
0.0
 10
101.367198
 20
164.803775
 30
0.0
 10
101.578891
 20
165.339483
 30
0.0
  0
SPLINE
  5
164
100
AcDbEntity
  8
Layer_1
 62
7
100
AcDbSpline
 70
8
 71
3
 72
8
 73
4
 74
0
 40
0
 40
0
 40
0
 40
0
 40
1
 40
1
 40
1
 40
1
 10
101.578891
 20
165.339483
 30
0.0
 10
101.790581
 20
165.879514
 30
0.0
 10
102.004433
 20
166.149529
 30
0.0
 10
102.220446
 20
166.149529
 30
0.0
  0
SPLINE
  5
165
100
AcDbEntity
  8
Layer_1
 62
7
100
AcDbSpline
 70
8
 71
3
 72
8
 73
4
 74
0
 40
0
 40
0
 40
0
 40
0
 40
1
 40
1
 40
1
 40
1
 10
102.220446
 20
166.149529
 30
0.0
 10
102.345733
 20
166.149529
 30
0.0
 10
102.445098
 20
166.099846
 30
0.0
 10
102.518543
 20
166.000481
 30
0.0
  0
SPLINE
  5
166
100
AcDbEntity
  8
Layer_1
 62
7
100
AcDbSpline
 70
8
 71
3
 72
8
 73
4
 74
0
 40
0
 40
0
 40
0
 40
0
 40
1
 40
1
 40
1
 40
1
 10
102.518543
 20
166.000481
 30
0.0
 10
102.591988
 20
165.905436
 30
0.0
 10
102.628710
 20
165.790950
 30
0.0
 10
102.628710
 20
165.657022
 30
0.0
  0
SPLINE
  5
167
100
AcDbEntity
  8
Layer_1
 62
7
100
AcDbSpline
 70
8
 71
3
 72
8
 73
4
 74
0
 40
0
 40
0
 40
0
 40
0
 40
1
 40
1
 40
1
 40
1
 10
102.628710
 20
165.657022
 30
0.0
 10
102.628710
 20
165.549015
 30
0.0
 10
102.579027
 20
165.382686
 30
0.0
 10
102.479662
 20
165.158034
 30
0.0
  0
SPLINE
  5
168
100
AcDbEntity
  8
Layer_1
 62
7
100
AcDbSpline
 70
8
 71
3
 72
8
 73
4
 74
0
 40
0
 40
0
 40
0
 40
0
 40
1
 40
1
 40
1
 40
1
 10
102.479662
 20
165.158034
 30
0.0
 10
102.384617
 20
164.942024
 30
0.0
 10
102.328453
 20
164.799456
 30
0.0
 10
102.311171
 20
164.730332
 30
0.0
  0
SPLINE
  5
169
100
AcDbEntity
  8
Layer_1
 62
7
100
AcDbSpline
 70
8
 71
3
 72
8
 73
4
 74
0
 40
0
 40
0
 40
0
 40
0
 40
1
 40
1
 40
1
 40
1
 10
102.311171
 20
164.730332
 30
0.0
 10
102.298212
 20
164.674167
 30
0.0
 10
102.237729
 20
164.455995
 30
0.0
 10
102.129722
 20
164.075815
 30
0.0
  0
SPLINE
  5
16a
100
AcDbEntity
  8
Layer_1
 62
7
100
AcDbSpline
 70
8
 71
3
 72
8
 73
4
 74
0
 40
0
 40
0
 40
0
 40
0
 40
1
 40
1
 40
1
 40
1
 10
102.129722
 20
164.075815
 30
0.0
 10
101.982833
 20
163.591949
 30
0.0
 10
101.909388
 20
163.129684
 30
0.0
 10
101.909388
 20
162.689018
 30
0.0
  0
SPLINE
  5
16b
100
AcDbEntity
  8
Layer_1
 62
7
100
AcDbSpline
 70
8
 71
3
 72
8
 73
4
 74
0
 40
0
 40
0
 40
0
 40
0
 40
1
 40
1
 40
1
 40
1
 10
101.909388
 20
162.689018
 30
0.0
 10
101.909388
 20
162.291556
 30
0.0
 10
101.879147
 20
161.995620
 30
0.0
 10
101.818664
 20
161.801210
 30
0.0
  0
SPLINE
  5
16c
100
AcDbEntity
  8
Layer_1
 62
7
100
AcDbSpline
 70
8
 71
3
 72
8
 73
4
 74
0
 40
0
 40
0
 40
0
 40
0
 40
1
 40
1
 40
1
 40
1
 10
101.818664
 20
161.801210
 30
0.0
 10
101.762501
 20
161.611117
 30
0.0
 10
101.639375
 20
161.516071
 30
0.0
 10
101.449286
 20
161.516071
 30
0.0
  0
LWPOLYLINE
  5
16d
100
AcDbEntity
  8
Layer_1
 62
7
100
AcDbPolyline
 90
3
 70
1
 10
97.748998
 20
164.464636
 30
0.0
 10
97.373139
 20
163.103759
 30
0.0
 10
97.373139
 20
163.103759
 30
0.0
  0
SPLINE
  5
16e
100
AcDbEntity
  8
Layer_1
 62
7
100
AcDbSpline
 70
8
 71
3
 72
8
 73
4
 74
0
 40
0
 40
0
 40
0
 40
0
 40
1
 40
1
 40
1
 40
1
 10
109.562693
 20
158.761920
 30
0.0
 10
109.562693
 20
158.321255
 30
0.0
 10
109.171712
 20
157.789865
 30
0.0
 10
108.389750
 20
157.167751
 30
0.0
  0
SPLINE
  5
16f
100
AcDbEntity
  8
Layer_1
 62
7
100
AcDbSpline
 70
8
 71
3
 72
8
 73
4
 74
0
 40
0
 40
0
 40
0
 40
0
 40
1
 40
1
 40
1
 40
1
 10
108.389750
 20
157.167751
 30
0.0
 10
107.612105
 20
156.545637
 30
0.0
 10
106.808541
 20
156.234580
 30
0.0
 10
105.979058
 20
156.234580
 30
0.0
  0
SPLINE
  5
170
100
AcDbEntity
  8
Layer_1
 62
7
100
AcDbSpline
 70
8
 71
3
 72
8
 73
4
 74
0
 40
0
 40
0
 40
0
 40
0
 40
1
 40
1
 40
1
 40
1
 10
105.979058
 20
156.234580
 30
0.0
 10
105.283499
 20
156.234580
 30
0.0
 10
104.745629
 20
156.439792
 30
0.0
 10
104.365446
 20
156.850216
 30
0.0
  0
SPLINE
  5
171
100
AcDbEntity
  8
Layer_1
 62
7
100
AcDbSpline
 70
8
 71
3
 72
8
 73
4
 74
0
 40
0
 40
0
 40
0
 40
0
 40
1
 40
1
 40
1
 40
1
 10
104.365446
 20
156.850216
 30
0.0
 10
103.989584
 20
157.260637
 30
0.0
 10
103.801654
 20
157.833068
 30
0.0
 10
103.801654
 20
158.567510
 30
0.0
  0
SPLINE
  5
172
100
AcDbEntity
  8
Layer_1
 62
7
100
AcDbSpline
 70
8
 71
3
 72
8
 73
4
 74
0
 40
0
 40
0
 40
0
 40
0
 40
1
 40
1
 40
1
 40
1
 10
103.801654
 20
158.567510
 30
0.0
 10
103.801654
 20
159.803099
 30
0.0
 10
104.218557
 20
160.978204
 30
0.0
 10
105.052364
 20
162.092825
 30
0.0
  0
SPLINE
  5
173
100
AcDbEntity
  8
Layer_1
 62
7
100
AcDbSpline
 70
8
 71
3
 72
8
 73
4
 74
0
 40
0
 40
0
 40
0
 40
0
 40
1
 40
1
 40
1
 40
1
 10
105.052364
 20
162.092825
 30
0.0
 10
105.886171
 20
163.207446
 30
0.0
 10
106.797741
 20
163.764757
 30
0.0
 10
107.787076
 20
163.764757
 30
0.0
  0
SPLINE
  5
174
100
AcDbEntity
  8
Layer_1
 62
7
100
AcDbSpline
 70
8
 71
3
 72
8
 73
4
 74
0
 40
0
 40
0
 40
0
 40
0
 40
1
 40
1
 40
1
 40
1
 10
107.787076
 20
163.764757
 30
0.0
 10
108.111093
 20
163.764757
 30
0.0
 10
108.374628
 20
163.658912
 30
0.0
 10
108.577679
 20
163.447222
 30
0.0
  0
SPLINE
  5
175
100
AcDbEntity
  8
Layer_1
 62
7
100
AcDbSpline
 70
8
 71
3
 72
8
 73
4
 74
0
 40
0
 40
0
 40
0
 40
0
 40
1
 40
1
 40
1
 40
1
 10
108.577679
 20
163.447222
 30
0.0
 10
108.785052
 20
163.235529
 30
0.0
 10
108.888738
 20
162.980634
 30
0.0
 10
108.888738
 20
162.682537
 30
0.0
  0
SPLINE
  5
176
100
AcDbEntity
  8
Layer_1
 62
7
100
AcDbSpline
 70
8
 71
3
 72
8
 73
4
 74
0
 40
0
 40
0
 40
0
 40
0
 40
1
 40
1
 40
1
 40
1
 10
108.888738
 20
162.682537
 30
0.0
 10
108.888738
 20
162.017220
 30
0.0
 10
108.562560
 20
161.379986
 30
0.0
 10
107.910205
 20
160.770834
 30
0.0
  0
SPLINE
  5
177
100
AcDbEntity
  8
Layer_1
 62
7
100
AcDbSpline
 70
8
 71
3
 72
8
 73
4
 74
0
 40
0
 40
0
 40
0
 40
0
 40
1
 40
1
 40
1
 40
1
 10
107.910205
 20
160.770834
 30
0.0
 10
107.257847
 20
160.161679
 30
0.0
 10
106.385157
 20
159.563325
 30
0.0
 10
105.292136
 20
158.975773
 30
0.0
  0
SPLINE
  5
178
100
AcDbEntity
  8
Layer_1
 62
7
100
AcDbSpline
 70
8
 71
3
 72
8
 73
4
 74
0
 40
0
 40
0
 40
0
 40
0
 40
1
 40
1
 40
1
 40
1
 10
105.292136
 20
158.975773
 30
0.0
 10
105.067484
 20
158.859125
 30
0.0
 10
104.955159
 20
158.707917
 30
0.0
 10
104.955159
 20
158.522147
 30
0.0
  0
SPLINE
  5
179
100
AcDbEntity
  8
Layer_1
 62
7
100
AcDbSpline
 70
8
 71
3
 72
8
 73
4
 74
0
 40
0
 40
0
 40
0
 40
0
 40
1
 40
1
 40
1
 40
1
 10
104.955159
 20
158.522147
 30
0.0
 10
104.955159
 20
158.163568
 30
0.0
 10
105.058845
 20
157.876272
 30
0.0
 10
105.266217
 20
157.660258
 30
0.0
  0
SPLINE
  5
17a
100
AcDbEntity
  8
Layer_1
 62
7
100
AcDbSpline
 70
8
 71
3
 72
8
 73
4
 74
0
 40
0
 40
0
 40
0
 40
0
 40
1
 40
1
 40
1
 40
1
 10
105.266217
 20
157.660258
 30
0.0
 10
105.473589
 20
157.444247
 30
0.0
 10
105.780326
 20
157.336242
 30
0.0
 10
106.186426
 20
157.336242
 30
0.0
  0
SPLINE
  5
17b
100
AcDbEntity
  8
Layer_1
 62
7
100
AcDbSpline
 70
8
 71
3
 72
8
 73
4
 74
0
 40
0
 40
0
 40
0
 40
0
 40
1
 40
1
 40
1
 40
1
 10
106.186426
 20
157.336242
 30
0.0
 10
107.115278
 20
157.336242
 30
0.0
 10
108.063571
 20
157.850351
 30
0.0
 10
109.031305
 20
158.878568
 30
0.0
  0
SPLINE
  5
17c
100
AcDbEntity
  8
Layer_1
 62
7
100
AcDbSpline
 70
8
 71
3
 72
8
 73
4
 74
0
 40
0
 40
0
 40
0
 40
0
 40
1
 40
1
 40
1
 40
1
 10
109.031305
 20
158.878568
 30
0.0
 10
109.173874
 20
159.021134
 30
0.0
 10
109.281879
 20
159.092417
 30
0.0
 10
109.355321
 20
159.092417
 30
0.0
  0
SPLINE
  5
17d
100
AcDbEntity
  8
Layer_1
 62
7
100
AcDbSpline
 70
8
 71
3
 72
8
 73
4
 74
0
 40
0
 40
0
 40
0
 40
0
 40
1
 40
1
 40
1
 40
1
 10
109.355321
 20
159.092417
 30
0.0
 10
109.493569
 20
159.092417
 30
0.0
 10
109.562693
 20
158.982251
 30
0.0
 10
109.562693
 20
158.761920
 30
0.0
  0
LWPOLYLINE
  5
17e
100
AcDbEntity
  8
Layer_1
 62
7
100
AcDbPolyline
 90
2
 70
1
 10
101.449286
 20
161.516071
 30
0.0
 10
101.449286
 20
161.516071
 30
0.0
  0
SPLINE
  5
17f
100
AcDbEntity
  8
Layer_1
 62
7
100
AcDbSpline
 70
8
 71
3
 72
8
 73
4
 74
0
 40
0
 40
0
 40
0
 40
0
 40
1
 40
1
 40
1
 40
1
 10
105.058845
 20
159.772858
 30
0.0
 10
106.890627
 20
160.861558
 30
0.0
 10
107.806519
 20
161.736406
 30
0.0
 10
107.806519
 20
162.397403
 30
0.0
  0
SPLINE
  5
180
100
AcDbEntity
  8
Layer_1
 62
7
100
AcDbSpline
 70
8
 71
3
 72
8
 73
4
 74
0
 40
0
 40
0
 40
0
 40
0
 40
1
 40
1
 40
1
 40
1
 10
107.806519
 20
162.397403
 30
0.0
 10
107.806519
 20
162.656617
 30
0.0
 10
107.689872
 20
162.786224
 30
0.0
 10
107.456579
 20
162.786224
 30
0.0
  0
SPLINE
  5
181
100
AcDbEntity
  8
Layer_1
 62
7
100
AcDbSpline
 70
8
 71
3
 72
8
 73
4
 74
0
 40
0
 40
0
 40
0
 40
0
 40
1
 40
1
 40
1
 40
1
 10
107.456579
 20
162.786224
 30
0.0
 10
107.059117
 20
162.786224
 30
0.0
 10
106.609812
 20
162.494608
 30
0.0
 10
106.108664
 20
161.911377
 30
0.0
  0
SPLINE
  5
182
100
AcDbEntity
  8
Layer_1
 62
7
100
AcDbSpline
 70
8
 71
3
 72
8
 73
4
 74
0
 40
0
 40
0
 40
0
 40
0
 40
1
 40
1
 40
1
 40
1
 10
106.108664
 20
161.911377
 30
0.0
 10
105.611836
 20
161.328143
 30
0.0
 10
105.261896
 20
160.615303
 30
0.0
 10
105.058845
 20
159.772858
 30
0.0
  0
LWPOLYLINE
  5
183
100
AcDbEntity
  8
Layer_1
 62
7
100
AcDbPolyline
 90
2
 70
1
 10
109.562693
 20
158.761920
 30
0.0
 10
109.562693
 20
158.761920
 30
0.0
  0
SPLINE
  5
184
100
AcDbEntity
  8
Layer_1
 62
7
100
AcDbSpline
 70
8
 71
3
 72
8
 73
4
 74
0
 40
0
 40
0
 40
0
 40
0
 40
1
 40
1
 40
1
 40
1
 10
115.803283
 20
161.691043
 30
0.0
 10
115.401500
 20
161.682401
 30
0.0
 10
114.541772
 20
160.492175
 30
0.0
 10
113.224100
 20
158.120365
 30
0.0
  0
SPLINE
  5
185
100
AcDbEntity
  8
Layer_1
 62
7
100
AcDbSpline
 70
8
 71
3
 72
8
 73
4
 74
0
 40
0
 40
0
 40
0
 40
0
 40
1
 40
1
 40
1
 40
1
 10
113.224100
 20
158.120365
 30
0.0
 10
112.779114
 20
157.321120
 30
0.0
 10
112.519898
 20
156.884775
 30
0.0
 10
112.446454
 20
156.811331
 30
0.0
  0
SPLINE
  5
186
100
AcDbEntity
  8
Layer_1
 62
7
100
AcDbSpline
 70
8
 71
3
 72
8
 73
4
 74
0
 40
0
 40
0
 40
0
 40
0
 40
1
 40
1
 40
1
 40
1
 10
112.446454
 20
156.811331
 30
0.0
 10
112.373009
 20
156.742206
 30
0.0
 10
112.236921
 20
156.679563
 30
0.0
 10
112.038190
 20
156.623401
 30
0.0
  0
SPLINE
  5
187
100
AcDbEntity
  8
Layer_1
 62
7
100
AcDbSpline
 70
8
 71
3
 72
8
 73
4
 74
0
 40
0
 40
0
 40
0
 40
0
 40
1
 40
1
 40
1
 40
1
 10
112.038190
 20
156.623401
 30
0.0
 10
111.843780
 20
156.567239
 30
0.0
 10
111.681771
 20
156.539158
 30
0.0
 10
111.552164
 20
156.539158
 30
0.0
  0
SPLINE
  5
188
100
AcDbEntity
  8
Layer_1
 62
7
100
AcDbSpline
 70
8
 71
3
 72
8
 73
4
 74
0
 40
0
 40
0
 40
0
 40
0
 40
1
 40
1
 40
1
 40
1
 10
111.552164
 20
156.539158
 30
0.0
 10
111.262709
 20
156.539158
 30
0.0
 10
111.117981
 20
157.102949
 30
0.0
 10
111.117981
 20
158.230532
 30
0.0
  0
SPLINE
  5
189
100
AcDbEntity
  8
Layer_1
 62
7
100
AcDbSpline
 70
8
 71
3
 72
8
 73
4
 74
0
 40
0
 40
0
 40
0
 40
0
 40
1
 40
1
 40
1
 40
1
 10
111.117981
 20
158.230532
 30
0.0
 10
111.117981
 20
158.865608
 30
0.0
 10
111.254069
 20
160.014791
 30
0.0
 10
111.526245
 20
161.678081
 30
0.0
  0
SPLINE
  5
18a
100
AcDbEntity
  8
Layer_1
 62
7
100
AcDbSpline
 70
8
 71
3
 72
8
 73
4
 74
0
 40
0
 40
0
 40
0
 40
0
 40
1
 40
1
 40
1
 40
1
 10
111.526245
 20
161.678081
 30
0.0
 10
111.638569
 20
162.352039
 30
0.0
 10
111.694731
 20
162.833746
 30
0.0
 10
111.694731
 20
163.123201
 30
0.0
  0
SPLINE
  5
18b
100
AcDbEntity
  8
Layer_1
 62
7
100
AcDbSpline
 70
8
 71
3
 72
8
 73
4
 74
0
 40
0
 40
0
 40
0
 40
0
 40
1
 40
1
 40
1
 40
1
 10
111.694731
 20
163.123201
 30
0.0
 10
111.694731
 20
163.408336
 30
0.0
 10
111.822180
 20
163.550903
 30
0.0
 10
112.077076
 20
163.550903
 30
0.0
  0
SPLINE
  5
18c
100
AcDbEntity
  8
Layer_1
 62
7
100
AcDbSpline
 70
8
 71
3
 72
8
 73
4
 74
0
 40
0
 40
0
 40
0
 40
0
 40
1
 40
1
 40
1
 40
1
 10
112.077076
 20
163.550903
 30
0.0
 10
112.556621
 20
163.550903
 30
0.0
 10
112.796393
 20
163.205284
 30
0.0
 10
112.796393
 20
162.514046
 30
0.0
  0
SPLINE
  5
18d
100
AcDbEntity
  8
Layer_1
 62
7
100
AcDbSpline
 70
8
 71
3
 72
8
 73
4
 74
0
 40
0
 40
0
 40
0
 40
0
 40
1
 40
1
 40
1
 40
1
 10
112.796393
 20
162.514046
 30
0.0
 10
112.796393
 20
162.190029
 30
0.0
 10
112.716469
 20
161.554955
 30
0.0
 10
112.556621
 20
160.608823
 30
0.0
  0
SPLINE
  5
18e
100
AcDbEntity
  8
Layer_1
 62
7
100
AcDbSpline
 70
8
 71
3
 72
8
 73
4
 74
0
 40
0
 40
0
 40
0
 40
0
 40
1
 40
1
 40
1
 40
1
 10
112.556621
 20
160.608823
 30
0.0
 10
112.370852
 20
159.528762
 30
0.0
 10
112.275807
 20
158.872084
 30
0.0
 10
112.271486
 20
158.638791
 30
0.0
  0
SPLINE
  5
18f
100
AcDbEntity
  8
Layer_1
 62
7
100
AcDbSpline
 70
8
 71
3
 72
8
 73
4
 74
0
 40
0
 40
0
 40
0
 40
0
 40
1
 40
1
 40
1
 40
1
 10
112.271486
 20
158.638791
 30
0.0
 10
112.539341
 20
158.898008
 30
0.0
 10
112.932483
 20
159.466120
 30
0.0
 10
113.450911
 20
160.343127
 30
0.0
  0
SPLINE
  5
190
100
AcDbEntity
  8
Layer_1
 62
7
100
AcDbSpline
 70
8
 71
3
 72
8
 73
4
 74
0
 40
0
 40
0
 40
0
 40
0
 40
1
 40
1
 40
1
 40
1
 10
113.450911
 20
160.343127
 30
0.0
 10
114.185352
 20
161.544155
 30
0.0
 10
114.725381
 20
162.304517
 30
0.0
 10
115.070999
 20
162.624214
 30
0.0
  0
SPLINE
  5
191
100
AcDbEntity
  8
Layer_1
 62
7
100
AcDbSpline
 70
8
 71
3
 72
8
 73
4
 74
0
 40
0
 40
0
 40
0
 40
0
 40
1
 40
1
 40
1
 40
1
 10
115.070999
 20
162.624214
 30
0.0
 10
115.420940
 20
162.948231
 30
0.0
 10
115.781680
 20
163.110240
 30
0.0
 10
116.153218
 20
163.110240
 30
0.0
  0
SPLINE
  5
192
100
AcDbEntity
  8
Layer_1
 62
7
100
AcDbSpline
 70
8
 71
3
 72
8
 73
4
 74
0
 40
0
 40
0
 40
0
 40
0
 40
1
 40
1
 40
1
 40
1
 10
116.153218
 20
163.110240
 30
0.0
 10
116.434035
 20
163.110240
 30
0.0
 10
116.656528
 20
162.922310
 30
0.0
 10
116.820697
 20
162.546451
 30
0.0
  0
SPLINE
  5
193
100
AcDbEntity
  8
Layer_1
 62
7
100
AcDbSpline
 70
8
 71
3
 72
8
 73
4
 74
0
 40
0
 40
0
 40
0
 40
0
 40
1
 40
1
 40
1
 40
1
 10
116.820697
 20
162.546451
 30
0.0
 10
116.989187
 20
162.170589
 30
0.0
 10
117.090712
 20
161.274139
 30
0.0
 10
117.125274
 20
159.857101
 30
0.0
  0
SPLINE
  5
194
100
AcDbEntity
  8
Layer_1
 62
7
100
AcDbSpline
 70
8
 71
3
 72
8
 73
4
 74
0
 40
0
 40
0
 40
0
 40
0
 40
1
 40
1
 40
1
 40
1
 10
117.125274
 20
159.857101
 30
0.0
 10
117.133916
 20
159.502842
 30
0.0
 10
117.166317
 20
159.239308
 30
0.0
 10
117.222480
 20
159.066498
 30
0.0
  0
SPLINE
  5
195
100
AcDbEntity
  8
Layer_1
 62
7
100
AcDbSpline
 70
8
 71
3
 72
8
 73
4
 74
0
 40
0
 40
0
 40
0
 40
0
 40
1
 40
1
 40
1
 40
1
 10
117.222480
 20
159.066498
 30
0.0
 10
117.278642
 20
158.893687
 30
0.0
 10
117.319683
 20
158.807282
 30
0.0
 10
117.345604
 20
158.807282
 30
0.0
  0
SPLINE
  5
196
100
AcDbEntity
  8
Layer_1
 62
7
100
AcDbSpline
 70
8
 71
3
 72
8
 73
4
 74
0
 40
0
 40
0
 40
0
 40
0
 40
1
 40
1
 40
1
 40
1
 10
117.345604
 20
158.807282
 30
0.0
 10
117.548656
 20
158.807282
 30
0.0
 10
117.989321
 20
159.498520
 30
0.0
 10
118.667599
 20
160.880996
 30
0.0
  0
SPLINE
  5
197
100
AcDbEntity
  8
Layer_1
 62
7
100
AcDbSpline
 70
8
 71
3
 72
8
 73
4
 74
0
 40
0
 40
0
 40
0
 40
0
 40
1
 40
1
 40
1
 40
1
 10
118.667599
 20
160.880996
 30
0.0
 10
119.030499
 20
161.611117
 30
0.0
 10
119.382599
 20
162.166269
 30
0.0
 10
119.723898
 20
162.546451
 30
0.0
  0
SPLINE
  5
198
100
AcDbEntity
  8
Layer_1
 62
7
100
AcDbSpline
 70
8
 71
3
 72
8
 73
4
 74
0
 40
0
 40
0
 40
0
 40
0
 40
1
 40
1
 40
1
 40
1
 10
119.723898
 20
162.546451
 30
0.0
 10
120.069517
 20
162.926631
 30
0.0
 10
120.451858
 20
163.116720
 30
0.0
 10
120.870922
 20
163.116720
 30
0.0
  0
SPLINE
  5
199
100
AcDbEntity
  8
Layer_1
 62
7
100
AcDbSpline
 70
8
 71
3
 72
8
 73
4
 74
0
 40
0
 40
0
 40
0
 40
0
 40
1
 40
1
 40
1
 40
1
 10
120.870922
 20
163.116720
 30
0.0
 10
121.220861
 20
163.116720
 30
0.0
 10
121.475755
 20
162.935270
 30
0.0
 10
121.635604
 20
162.572370
 30
0.0
  0
SPLINE
  5
19a
100
AcDbEntity
  8
Layer_1
 62
7
100
AcDbSpline
 70
8
 71
3
 72
8
 73
4
 74
0
 40
0
 40
0
 40
0
 40
0
 40
1
 40
1
 40
1
 40
1
 10
121.635604
 20
162.572370
 30
0.0
 10
121.795453
 20
162.213791
 30
0.0
 10
121.909939
 20
161.680241
 30
0.0
 10
121.979063
 20
160.971721
 30
0.0
  0
SPLINE
  5
19b
100
AcDbEntity
  8
Layer_1
 62
7
100
AcDbSpline
 70
8
 71
3
 72
8
 73
4
 74
0
 40
0
 40
0
 40
0
 40
0
 40
1
 40
1
 40
1
 40
1
 10
121.979063
 20
160.971721
 30
0.0
 10
122.043867
 20
160.254562
 30
0.0
 10
122.143232
 20
159.597886
 30
0.0
 10
122.277159
 20
159.001693
 30
0.0
  0
SPLINE
  5
19c
100
AcDbEntity
  8
Layer_1
 62
7
100
AcDbSpline
 70
8
 71
3
 72
8
 73
4
 74
0
 40
0
 40
0
 40
0
 40
0
 40
1
 40
1
 40
1
 40
1
 10
122.277159
 20
159.001693
 30
0.0
 10
122.415407
 20
158.405500
 30
0.0
 10
122.665981
 20
158.023158
 30
0.0
 10
123.028881
 20
157.854669
 30
0.0
  0
SPLINE
  5
19d
100
AcDbEntity
  8
Layer_1
 62
7
100
AcDbSpline
 70
8
 71
3
 72
8
 73
4
 74
0
 40
0
 40
0
 40
0
 40
0
 40
1
 40
1
 40
1
 40
1
 10
123.028881
 20
157.854669
 30
0.0
 10
123.275135
 20
157.738023
 30
0.0
 10
123.398261
 20
157.601937
 30
0.0
 10
123.398261
 20
157.446409
 30
0.0
  0
SPLINE
  5
19e
100
AcDbEntity
  8
Layer_1
 62
7
100
AcDbSpline
 70
8
 71
3
 72
8
 73
4
 74
0
 40
0
 40
0
 40
0
 40
0
 40
1
 40
1
 40
1
 40
1
 10
123.398261
 20
157.446409
 30
0.0
 10
123.398261
 20
157.295199
 30
0.0
 10
123.294576
 20
157.139670
 30
0.0
 10
123.087204
 20
156.979822
 30
0.0
  0
SPLINE
  5
19f
100
AcDbEntity
  8
Layer_1
 62
7
100
AcDbSpline
 70
8
 71
3
 72
8
 73
4
 74
0
 40
0
 40
0
 40
0
 40
0
 40
1
 40
1
 40
1
 40
1
 10
123.087204
 20
156.979822
 30
0.0
 10
122.879833
 20
156.819973
 30
0.0
 10
122.689742
 20
156.740049
 30
0.0
 10
122.516933
 20
156.740049
 30
0.0
  0
SPLINE
  5
1a0
100
AcDbEntity
  8
Layer_1
 62
7
100
AcDbSpline
 70
8
 71
3
 72
8
 73
4
 74
0
 40
0
 40
0
 40
0
 40
0
 40
1
 40
1
 40
1
 40
1
 10
122.516933
 20
156.740049
 30
0.0
 10
122.171314
 20
156.740049
 30
0.0
 10
121.862417
 20
156.951741
 30
0.0
 10
121.590242
 20
157.375123
 30
0.0
  0
SPLINE
  5
1a1
100
AcDbEntity
  8
Layer_1
 62
7
100
AcDbSpline
 70
8
 71
3
 72
8
 73
4
 74
0
 40
0
 40
0
 40
0
 40
0
 40
1
 40
1
 40
1
 40
1
 10
121.590242
 20
157.375123
 30
0.0
 10
121.318066
 20
157.798506
 30
0.0
 10
121.112855
 20
158.714398
 30
0.0
 10
120.974607
 20
160.122797
 30
0.0
  0
SPLINE
  5
1a2
100
AcDbEntity
  8
Layer_1
 62
7
100
AcDbSpline
 70
8
 71
3
 72
8
 73
4
 74
0
 40
0
 40
0
 40
0
 40
0
 40
1
 40
1
 40
1
 40
1
 10
120.974607
 20
160.122797
 30
0.0
 10
120.914124
 20
160.688746
 30
0.0
 10
120.855801
 20
161.090527
 30
0.0
 10
120.799638
 20
161.328141
 30
0.0
  0
SPLINE
  5
1a3
100
AcDbEntity
  8
Layer_1
 62
7
100
AcDbSpline
 70
8
 71
3
 72
8
 73
4
 74
0
 40
0
 40
0
 40
0
 40
0
 40
1
 40
1
 40
1
 40
1
 10
120.799638
 20
161.328141
 30
0.0
 10
120.743474
 20
161.565755
 30
0.0
 10
120.654910
 20
161.684562
 30
0.0
 10
120.533943
 20
161.684562
 30
0.0
  0
SPLINE
  5
1a4
100
AcDbEntity
  8
Layer_1
 62
7
100
AcDbSpline
 70
8
 71
3
 72
8
 73
4
 74
0
 40
0
 40
0
 40
0
 40
0
 40
1
 40
1
 40
1
 40
1
 10
120.533943
 20
161.684562
 30
0.0
 10
120.352493
 20
161.684562
 30
0.0
 10
120.136481
 20
161.511753
 30
0.0
 10
119.885907
 20
161.166135
 30
0.0
  0
SPLINE
  5
1a5
100
AcDbEntity
  8
Layer_1
 62
7
100
AcDbSpline
 70
8
 71
3
 72
8
 73
4
 74
0
 40
0
 40
0
 40
0
 40
0
 40
1
 40
1
 40
1
 40
1
 10
119.885907
 20
161.166135
 30
0.0
 10
119.639653
 20
160.820515
 30
0.0
 10
119.240031
 20
160.118475
 30
0.0
 10
118.687041
 20
159.060017
 30
0.0
  0
SPLINE
  5
1a6
100
AcDbEntity
  8
Layer_1
 62
7
100
AcDbSpline
 70
8
 71
3
 72
8
 73
4
 74
0
 40
0
 40
0
 40
0
 40
0
 40
1
 40
1
 40
1
 40
1
 10
118.687041
 20
159.060017
 30
0.0
 10
118.255015
 20
158.234851
 30
0.0
 10
117.926677
 20
157.684020
 30
0.0
 10
117.702025
 20
157.407524
 30
0.0
  0
SPLINE
  5
1a7
100
AcDbEntity
  8
Layer_1
 62
7
100
AcDbSpline
 70
8
 71
3
 72
8
 73
4
 74
0
 40
0
 40
0
 40
0
 40
0
 40
1
 40
1
 40
1
 40
1
 10
117.702025
 20
157.407524
 30
0.0
 10
117.481694
 20
157.135351
 30
0.0
 10
117.267842
 20
156.999264
 30
0.0
 10
117.060470
 20
156.999264
 30
0.0
  0
SPLINE
  5
1a8
100
AcDbEntity
  8
Layer_1
 62
7
100
AcDbSpline
 70
8
 71
3
 72
8
 73
4
 74
0
 40
0
 40
0
 40
0
 40
0
 40
1
 40
1
 40
1
 40
1
 10
117.060470
 20
156.999264
 30
0.0
 10
116.874700
 20
156.999264
 30
0.0
 10
116.708371
 20
157.072708
 30
0.0
 10
116.561482
 20
157.219594
 30
0.0
  0
SPLINE
  5
1a9
100
AcDbEntity
  8
Layer_1
 62
7
100
AcDbSpline
 70
8
 71
3
 72
8
 73
4
 74
0
 40
0
 40
0
 40
0
 40
0
 40
1
 40
1
 40
1
 40
1
 10
116.561482
 20
157.219594
 30
0.0
 10
116.414595
 20
157.370804
 30
0.0
 10
116.321711
 20
157.550094
 30
0.0
 10
116.282828
 20
157.757463
 30
0.0
  0
SPLINE
  5
1aa
100
AcDbEntity
  8
Layer_1
 62
7
100
AcDbSpline
 70
8
 71
3
 72
8
 73
4
 74
0
 40
0
 40
0
 40
0
 40
0
 40
1
 40
1
 40
1
 40
1
 10
116.282828
 20
157.757463
 30
0.0
 10
116.243945
 20
157.969156
 30
0.0
 10
116.202902
 20
158.485425
 30
0.0
 10
116.159699
 20
159.306270
 30
0.0
  0
SPLINE
  5
1ab
100
AcDbEntity
  8
Layer_1
 62
7
100
AcDbSpline
 70
8
 71
3
 72
8
 73
4
 74
0
 40
0
 40
0
 40
0
 40
0
 40
1
 40
1
 40
1
 40
1
 10
116.159699
 20
159.306270
 30
0.0
 10
116.094895
 20
160.671467
 30
0.0
 10
115.976090
 20
161.466391
 30
0.0
 10
115.803283
 20
161.691043
 30
0.0
  0
LWPOLYLINE
  5
1ac
100
AcDbEntity
  8
Layer_1
 62
7
100
AcDbPolyline
 90
2
 70
1
 10
105.058845
 20
159.772858
 30
0.0
 10
105.058845
 20
159.772858
 30
0.0
  0
SPLINE
  5
1ad
100
AcDbEntity
  8
Layer_1
 62
7
100
AcDbSpline
 70
8
 71
3
 72
8
 73
4
 74
0
 40
0
 40
0
 40
0
 40
0
 40
1
 40
1
 40
1
 40
1
 10
126.345245
 20
155.323602
 30
0.0
 10
126.164858
 20
155.355714
 30
0.0
 10
125.921063
 20
155.428891
 30
0.0
 10
125.613858
 20
155.543132
 30
0.0
  0
SPLINE
  5
1ae
100
AcDbEntity
  8
Layer_1
 62
7
100
AcDbSpline
 70
8
 71
3
 72
8
 73
4
 74
0
 40
0
 40
0
 40
0
 40
0
 40
1
 40
1
 40
1
 40
1
 10
125.613858
 20
155.543132
 30
0.0
 10
125.306653
 20
155.657373
 30
0.0
 10
125.103034
 20
155.768062
 30
0.0
 10
125.003001
 20
155.875200
 30
0.0
  0
SPLINE
  5
1af
100
AcDbEntity
  8
Layer_1
 62
7
100
AcDbSpline
 70
8
 71
3
 72
8
 73
4
 74
0
 40
0
 40
0
 40
0
 40
0
 40
1
 40
1
 40
1
 40
1
 10
125.003001
 20
155.875200
 30
0.0
 10
125.046640
 20
156.663953
 30
0.0
 10
125.485208
 20
158.082149
 30
0.0
 10
126.318706
 20
160.129788
 30
0.0
  0
SPLINE
  5
1b0
100
AcDbEntity
  8
Layer_1
 62
7
100
AcDbSpline
 70
8
 71
3
 72
8
 73
4
 74
0
 40
0
 40
0
 40
0
 40
0
 40
1
 40
1
 40
1
 40
1
 10
126.318706
 20
160.129788
 30
0.0
 10
126.992402
 20
161.781560
 30
0.0
 10
127.390263
 20
162.950181
 30
0.0
 10
127.512289
 20
163.635650
 30
0.0
  0
SPLINE
  5
1b1
100
AcDbEntity
  8
Layer_1
 62
7
100
AcDbSpline
 70
8
 71
3
 72
8
 73
4
 74
0
 40
0
 40
0
 40
0
 40
0
 40
1
 40
1
 40
1
 40
1
 10
127.512289
 20
163.635650
 30
0.0
 10
127.684410
 20
164.602522
 30
0.0
 10
127.977435
 20
165.224051
 30
0.0
 10
128.391364
 20
165.500238
 30
0.0
  0
SPLINE
  5
1b2
100
AcDbEntity
  8
Layer_1
 62
7
100
AcDbSpline
 70
8
 71
3
 72
8
 73
4
 74
0
 40
0
 40
0
 40
0
 40
0
 40
1
 40
1
 40
1
 40
1
 10
128.391364
 20
165.500238
 30
0.0
 10
128.805292
 20
165.776426
 30
0.0
 10
129.131312
 20
165.893325
 30
0.0
 10
129.369422
 20
165.850937
 30
0.0
  0
SPLINE
  5
1b3
100
AcDbEntity
  8
Layer_1
 62
7
100
AcDbSpline
 70
8
 71
3
 72
8
 73
4
 74
0
 40
0
 40
0
 40
0
 40
0
 40
1
 40
1
 40
1
 40
1
 10
129.369422
 20
165.850937
 30
0.0
 10
129.549808
 20
165.818825
 30
0.0
 10
129.720315
 20
165.710308
 30
0.0
 10
129.880945
 20
165.525386
 30
0.0
  0
SPLINE
  5
1b4
100
AcDbEntity
  8
Layer_1
 62
7
100
AcDbSpline
 70
8
 71
3
 72
8
 73
4
 74
0
 40
0
 40
0
 40
0
 40
0
 40
1
 40
1
 40
1
 40
1
 10
129.880945
 20
165.525386
 30
0.0
 10
130.041572
 20
165.340465
 30
0.0
 10
130.105187
 20
165.154204
 30
0.0
 10
130.071790
 20
164.966602
 30
0.0
  0
SPLINE
  5
1b5
100
AcDbEntity
  8
Layer_1
 62
7
100
AcDbSpline
 70
8
 71
3
 72
8
 73
4
 74
0
 40
0
 40
0
 40
0
 40
0
 40
1
 40
1
 40
1
 40
1
 10
130.071790
 20
164.966602
 30
0.0
 10
130.043531
 20
164.807861
 30
0.0
 10
129.321064
 20
163.049388
 30
0.0
 10
127.904388
 20
159.691181
 30
0.0
  0
SPLINE
  5
1b6
100
AcDbEntity
  8
Layer_1
 62
7
100
AcDbSpline
 70
8
 71
3
 72
8
 73
4
 74
0
 40
0
 40
0
 40
0
 40
0
 40
1
 40
1
 40
1
 40
1
 10
127.904388
 20
159.691181
 30
0.0
 10
127.311726
 20
158.285528
 30
0.0
 10
126.938817
 20
157.194351
 30
0.0
 10
126.785662
 20
156.417650
 30
0.0
  0
SPLINE
  5
1b7
100
AcDbEntity
  8
Layer_1
 62
7
100
AcDbSpline
 70
8
 71
3
 72
8
 73
4
 74
0
 40
0
 40
0
 40
0
 40
0
 40
1
 40
1
 40
1
 40
1
 10
126.785662
 20
156.417650
 30
0.0
 10
126.681317
 20
155.915136
 30
0.0
 10
126.534511
 20
155.550454
 30
0.0
 10
126.345245
 20
155.323602
 30
0.0
  0
LWPOLYLINE
  5
1b8
100
AcDbEntity
  8
Layer_1
 62
7
100
AcDbPolyline
 90
2
 70
1
 10
115.803283
 20
161.691043
 30
0.0
 10
115.803283
 20
161.691043
 30
0.0
  0
SPLINE
  5
1b9
100
AcDbEntity
  8
Layer_1
 62
7
100
AcDbSpline
 70
8
 71
3
 72
8
 73
4
 74
0
 40
0
 40
0
 40
0
 40
0
 40
1
 40
1
 40
1
 40
1
 10
125.773006
 20
152.109113
 30
0.0
 10
125.645842
 20
151.394782
 30
0.0
 10
125.375542
 20
150.921812
 30
0.0
 10
124.962105
 20
150.690202
 30
0.0
  0
SPLINE
  5
1ba
100
AcDbEntity
  8
Layer_1
 62
7
100
AcDbSpline
 70
8
 71
3
 72
8
 73
4
 74
0
 40
0
 40
0
 40
0
 40
0
 40
1
 40
1
 40
1
 40
1
 10
124.962105
 20
150.690202
 30
0.0
 10
124.555883
 20
150.457307
 30
0.0
 10
124.222894
 20
150.363981
 30
0.0
 10
123.963137
 20
150.410223
 30
0.0
  0
SPLINE
  5
1bb
100
AcDbEntity
  8
Layer_1
 62
7
100
AcDbSpline
 70
8
 71
3
 72
8
 73
4
 74
0
 40
0
 40
0
 40
0
 40
0
 40
1
 40
1
 40
1
 40
1
 10
123.963137
 20
150.410223
 30
0.0
 10
123.429192
 20
150.505275
 30
0.0
 10
123.224518
 20
150.902751
 30
0.0
 10
123.349113
 20
151.602651
 30
0.0
  0
SPLINE
  5
1bc
100
AcDbEntity
  8
Layer_1
 62
7
100
AcDbSpline
 70
8
 71
3
 72
8
 73
4
 74
0
 40
0
 40
0
 40
0
 40
0
 40
1
 40
1
 40
1
 40
1
 10
123.349113
 20
151.602651
 30
0.0
 10
123.397923
 20
151.876839
 30
0.0
 10
123.585603
 20
152.178414
 30
0.0
 10
123.912153
 20
152.507376
 30
0.0
  0
SPLINE
  5
1bd
100
AcDbEntity
  8
Layer_1
 62
7
100
AcDbSpline
 70
8
 71
3
 72
8
 73
4
 74
0
 40
0
 40
0
 40
0
 40
0
 40
1
 40
1
 40
1
 40
1
 10
123.912153
 20
152.507376
 30
0.0
 10
124.239988
 20
152.843554
 30
0.0
 10
124.540999
 20
152.987238
 30
0.0
 10
124.815187
 20
152.938428
 30
0.0
  0
SPLINE
  5
1be
100
AcDbEntity
  8
Layer_1
 62
7
100
AcDbSpline
 70
8
 71
3
 72
8
 73
4
 74
0
 40
0
 40
0
 40
0
 40
0
 40
1
 40
1
 40
1
 40
1
 10
124.815187
 20
152.938428
 30
0.0
 10
124.995574
 20
152.906315
 30
0.0
 10
125.205124
 20
152.787126
 30
0.0
 10
125.443837
 20
152.580860
 30
0.0
  0
SPLINE
  5
1bf
100
AcDbEntity
  8
Layer_1
 62
7
100
AcDbSpline
 70
8
 71
3
 72
8
 73
4
 74
0
 40
0
 40
0
 40
0
 40
0
 40
1
 40
1
 40
1
 40
1
 10
125.443837
 20
152.580860
 30
0.0
 10
125.689766
 20
152.373310
 30
0.0
 10
125.799489
 20
152.216060
 30
0.0
 10
125.773006
 20
152.109113
 30
0.0
  0
LWPOLYLINE
  5
1c0
100
AcDbEntity
  8
Layer_1
 62
7
100
AcDbPolyline
 90
2
 70
1
 10
126.345245
 20
155.323602
 30
0.0
 10
126.345245
 20
155.323602
 30
0.0
  0
LWPOLYLINE
  5
1c1
100
AcDbEntity
  8
Layer_1
 62
7
100
AcDbPolyline
 90
2
 70
1
 10
125.773006
 20
152.109113
 30
0.0
 10
125.773006
 20
152.109113
 30
0.0
  0
ENDSEC
  0
SECTION
  2
OBJECTS
  0
DICTIONARY
  5
C
330
0
100
AcDbDictionary
  3
ACAD_GROUP
350
D
  3
ACAD_MLINESTYLE
350
17
  0
DICTIONARY
  5
D
330
C
100
AcDbDictionary
  0
DICTIONARY
  5
1A
330
C
100
AcDbDictionary
  0
DICTIONARY
  5
17
330
C
100
AcDbDictionary
  3
STANDARD
350
18
  0
DICTIONARY
  5
19
330
C
100
AcDbDictionary
  0
ENDSEC
  0
EOF
