<?xml version="1.0" encoding="UTF-8" standalone="no"?>
<!-- Created with Inkscape (http://www.inkscape.org/) -->

<svg
   xmlns:dc="http://purl.org/dc/elements/1.1/"
   xmlns:cc="http://creativecommons.org/ns#"
   xmlns:rdf="http://www.w3.org/1999/02/22-rdf-syntax-ns#"
   xmlns:svg="http://www.w3.org/2000/svg"
   xmlns="http://www.w3.org/2000/svg"
   xmlns:sodipodi="http://sodipodi.sourceforge.net/DTD/sodipodi-0.dtd"
   xmlns:inkscape="http://www.inkscape.org/namespaces/inkscape"
   width="210mm"
   height="297mm"
   viewBox="0 0 744.09448819 1052.3622047"
   id="svg2"
   version="1.1"
   inkscape:version="0.91 r13725"
   sodipodi:docname="logo.svg">
  <defs
     id="defs4">
    <clipPath
       id="clipEmfPath1"
       clipPathUnits="userSpaceOnUse">
      <path
         inkscape:connector-curvature="0"
         id="path4222"
         d="m -7.91929,0 487.47629,0 0,620.344 -487.47629,0 z" />
    </clipPath>
    <pattern
       y="0"
       x="0"
       height="6"
       width="6"
       patternUnits="userSpaceOnUse"
       id="EMFhbasepattern" />
  </defs>
  <sodipodi:namedview
     id="base"
     pagecolor="#ffffff"
     bordercolor="#666666"
     borderopacity="1.0"
     inkscape:pageopacity="0.0"
     inkscape:pageshadow="2"
     inkscape:zoom="0.24694444"
     inkscape:cx="784.57276"
     inkscape:cy="-1103.9376"
     inkscape:document-units="px"
     inkscape:current-layer="layer1"
     showgrid="false"
     inkscape:window-width="1920"
     inkscape:window-height="1016"
     inkscape:window-x="0"
     inkscape:window-y="27"
     inkscape:window-maximized="1" />
  <metadata
     id="metadata7">
    <rdf:RDF>
      <cc:Work
         rdf:about="">
        <dc:format>image/svg+xml</dc:format>
        <dc:type
           rdf:resource="http://purl.org/dc/dcmitype/StillImage" />
        <dc:title />
      </cc:Work>
    </rdf:RDF>
  </metadata>
  <g
     inkscape:label="Layer 1"
     inkscape:groupmode="layer"
     id="layer1">
    <g
       id="g4195"
       transform="matrix(1.1856355,0.12520562,-0.12520562,1.1856355,2565.2654,-2141.2289)"
       inkscape:export-xdpi="100.04386"
       inkscape:export-ydpi="100.04386">
      <rect
         transform="matrix(0.99340034,0.11469854,-0.11469854,0.99340034,0,0)"
         style="opacity:1;fill:#000000;fill-opacity:1;stroke:none;stroke-width:2;stroke-linecap:butt;stroke-miterlimit:4;stroke-dasharray:none"
         id="rect4169"
         width="111.64247"
         height="42.288818"
         x="-1738.8422"
         y="2603.3433" />
      <path
         style="opacity:1;fill:#000000;fill-opacity:1;stroke:none;stroke-width:2;stroke-linecap:butt;stroke-miterlimit:4;stroke-dasharray:none"
         d="m -2039.1143,2382.5289 c 3.2938,-2.4355 10.213,-0.8952 10.213,-0.8952 l 12.6045,1.4554 -6.1485,53.252 -13.0355,-1.5051 c 0,0 -6.3645,-0.2379 -9.7526,-4.5105 -3.0369,-3.8297 -1.2141,-10.7613 -1.2141,-10.7613 l 3.4334,-29.7364 c 0,0 0.6853,-4.9221 3.8998,-7.2989 z"
         id="path4171"
         inkscape:connector-curvature="0"
         sodipodi:nodetypes="sccccsccs" />
      <path
         sodipodi:nodetypes="sccccsccs"
         inkscape:connector-curvature="0"
         id="path4173"
         d="m -1905.6196,2397.9423 c -2.6521,-3.122 -9.7403,-3.199 -9.7403,-3.199 l -12.6046,-1.4553 -6.1485,53.252 13.0355,1.5051 c 0,0 6.2513,1.2187 10.5239,-2.1694 3.8297,-3.0369 3.6344,-10.2014 3.6344,-10.2014 l 3.4334,-29.7365 c 0,0 0.4544,-4.9487 -2.1338,-7.9955 z"
         style="opacity:1;fill:#000000;fill-opacity:1;stroke:none;stroke-width:2;stroke-linecap:butt;stroke-miterlimit:4;stroke-dasharray:none" />
    </g>
    <g
       style="font-style:normal;font-weight:normal;font-size:307.37805176px;line-height:125%;font-family:sans-serif;letter-spacing:0px;word-spacing:0px;fill:#000000;fill-opacity:1;stroke:none;stroke-width:1px;stroke-linecap:butt;stroke-linejoin:miter;stroke-opacity:1"
       id="text4175"
       inkscape:export-xdpi="100.04386"
       inkscape:export-ydpi="100.04386"
       transform="translate(1668.5481,-1898.654)">
      <path
         d="m -1798.9881,2623.5313 c 37.2215,-68.7398 67.8893,-103.1097 92.0032,-103.1097 6.4037,0 11.6068,3.6521 15.6091,10.9563 4.0023,7.3043 7.2542,23.5137 9.7556,48.6282 2.5015,26.7155 8.1548,46.0266 16.9599,57.9335 4.5026,6.1035 6.7539,10.6062 6.7539,13.5079 0,2.6015 -1.5009,5.0028 -4.5026,7.2041 -3.0017,2.2013 -6.2036,3.3019 -9.6056,3.3019 -7.8045,0 -14.7085,-4.3525 -20.712,-13.0575 -6.0035,-8.8051 -9.8557,-24.2141 -11.5567,-46.2268 -1.701,-20.8121 -3.502,-34.4199 -5.4031,-40.8236 -1.9011,-6.4037 -5.053,-9.6056 -9.4555,-9.6056 -10.5061,0 -31.6683,27.4659 -63.4868,82.3977 -9.5055,16.4095 -16.5095,27.1658 -21.0121,32.2687 -4.5027,5.0029 -8.6051,7.5044 -12.3072,7.5044 -4.4025,0 -8.1047,-1.3008 -11.1064,-3.9023 -3.0017,-2.6015 -4.5026,-5.8034 -4.5026,-9.6056 0,-2.8016 0.8005,-8.2047 2.4014,-16.2094 5.236,-66.5673 2.8198,-82.9366 15.9849,-145.0725 8.672,-24.61 40.5178,-111.0372 44.0199,-115.84 3.6021,-4.8028 6.6038,-7.2042 9.0052,-7.2042 4.3025,0 8.2047,1.751 11.7068,5.253 3.502,3.5021 5.253,8.3549 5.253,14.5585 0,18.4107 -27.7361,87.1119 -36.7413,119.2305 -4.4025,15.9092 -9.0552,36.1209 -13.9581,60.6351 -4.9028,24.5142 -7.3542,39.673 -7.3542,45.4763 0,1.2007 0.5503,1.8011 1.6509,1.8011 z"
         style="font-style:normal;font-variant:normal;font-weight:normal;font-stretch:normal;font-family:'Segoe Print';-inkscape-font-specification:'Segoe Print'"
         id="path4201"
         inkscape:connector-curvature="0"
         sodipodi:nodetypes="cssccsssccssccssscccscscsssc" />
      <path
         d="m -1582.5628,2467.591 q -3.1518,0 -4.8028,-6.754 -0.6003,-2.1012 -1.6509,-4.6526 -4.0524,-9.7557 -4.0524,-16.9599 0,-6.0034 7.0541,-12.157 7.2042,-6.3037 15.9092,-6.3037 4.3526,0 9.7557,3.452 5.4031,3.3019 5.4031,6.4538 0,4.9528 -3.7522,16.8097 -3.602,11.8569 -11.7067,16.0593 -7.9546,4.0524 -12.1571,4.0524 z m -19.6614,167.6471 q 0,11.4066 3.1519,25.6648 0.6003,2.7016 0.6003,4.5026 0,2.7016 -4.9529,6.904 -4.9528,4.3526 -10.5061,4.3526 -14.5584,0 -14.5584,-26.7155 0,-27.616 11.4066,-87.3506 3.9023,-20.8621 3.9023,-25.6649 0,-9.4554 3.452,-16.0593 3.452,-6.7539 9.7556,-6.7539 7.6545,0 12.007,3.7522 4.5026,3.6021 4.5026,8.1047 0,4.5026 -2.1012,11.8568 -11.2565,39.623 -13.9581,56.7329 -2.7016,17.1099 -2.7016,40.6736 z"
         style="font-style:normal;font-variant:normal;font-weight:normal;font-stretch:normal;font-family:'Segoe Print';-inkscape-font-specification:'Segoe Print'"
         id="path4203"
         inkscape:connector-curvature="0" />
      <path
         d="m -1480.9539,2517.1197 q 15.4589,-1.2007 29.1169,-2.8517 13.5078,-1.5009 22.513,-1.5009 11.4066,0 14.4083,2.1012 3.0018,2.1013 3.0018,7.3543 0,12.157 -16.9598,13.2077 -21.7626,1.3507 -40.0733,3.7521 -18.3106,2.4014 -19.8114,4.0524 -1.3508,1.5008 -9.0052,35.7207 -7.6545,34.0697 -7.6545,44.2756 0,16.5096 4.3525,22.0628 4.3526,5.4031 13.0576,5.4031 12.9075,0 35.8708,-19.3612 8.8551,-7.9546 13.6579,-7.9546 6.4537,0 6.4537,6.904 0,10.8063 -20.862,28.0663 -20.712,17.1099 -42.4747,17.1099 -36.321,0 -36.321,-42.7748 0,-15.459 7.5044,-47.8777 7.3542,-32.2687 7.3542,-38.7225 0,-2.2513 -3.6021,-2.2513 l -15.609,1.3508 q -19.2111,0 -19.2111,-15.3089 0,-8.705 8.8551,-8.705 l 30.9179,0 q 3.1518,0 5.5532,-2.8517 2.4014,-2.8516 7.0541,-19.061 4.6527,-16.3595 8.2548,-32.2687 3.6021,-15.7591 14.1082,-15.7591 6.4537,0 10.0558,4.5026 3.6021,4.5026 3.6021,8.4049 0,2.1012 -5.4032,21.4624 l -8.705,31.5183 z"
         style="font-style:normal;font-variant:normal;font-weight:normal;font-stretch:normal;font-family:'Segoe Print';-inkscape-font-specification:'Segoe Print'"
         id="path4205"
         inkscape:connector-curvature="0" />
      <path
         d="m -1386.5492,2553.891 q -4.8028,0 -8.1047,-6.4538 -3.302,-6.4537 -3.302,-12.0069 0,-7.3543 3.452,-29.4171 3.6021,-22.0628 10.9564,-40.6735 7.3542,-18.7609 14.8586,-18.7609 4.3525,0 6.904,3.452 2.5515,3.3019 2.5515,7.9546 0,3.7522 -3.452,11.5567 -3.3019,7.5043 -3.9023,9.9057 -0.4502,1.9512 -4.2024,15.1588 -5.103,16.8097 -5.103,32.1186 0,13.808 -2.1012,20.5619 -1.9511,6.6039 -8.5549,6.6039 z"
         style="font-style:normal;font-variant:normal;font-weight:normal;font-stretch:normal;font-family:'Segoe Print';-inkscape-font-specification:'Segoe Print'"
         id="path4207"
         inkscape:connector-curvature="0" />
      <path
         d="m -1198.6404,2617.6779 q 0,15.3089 -27.1657,36.9214 -27.0157,21.6125 -55.8323,21.6125 -24.164,0 -37.3717,-14.2583 -13.0576,-14.2582 -13.0576,-39.773 0,-42.9249 28.9668,-81.6473 28.9668,-38.7224 63.3367,-38.7224 11.2565,0 18.3106,7.3542 7.2042,7.3543 7.2042,17.7103 0,23.1134 -22.6631,44.2756 -22.6632,21.1623 -60.6352,41.5741 -7.8045,4.0524 -7.8045,10.5061 0,12.4572 7.2042,19.9616 7.2042,7.5043 21.3123,7.5043 32.2687,0 65.8882,-35.7207 4.9529,-4.9528 7.5043,-4.9528 4.8028,0 4.8028,7.6544 z m -104.3104,-23.4136 q 63.6369,-37.8219 63.6369,-60.7852 0,-9.0052 -8.1047,-9.0052 -13.808,0 -31.2181,20.2617 -17.26,20.2618 -24.3141,49.5287 z"
         style="font-style:normal;font-variant:normal;font-weight:normal;font-stretch:normal;font-family:'Segoe Print';-inkscape-font-specification:'Segoe Print'"
         id="path4209"
         inkscape:connector-curvature="0" />
      <path
         d="m -1054.1066,2549.8386 q -13.9581,0.3002 -59.7346,82.6979 -15.459,27.7661 -18.0105,30.3176 -2.5515,2.4014 -9.4555,4.3525 -6.7539,1.9511 -11.2565,1.9511 -10.0558,0 -10.0558,-39.1727 0,-22.0628 9.4555,-79.8462 3.9022,-23.4136 3.9022,-33.4694 0,-9.9057 8.8552,-9.9057 16.6596,0 16.6596,24.0139 0,11.2565 -5.5532,44.1255 -6.4537,37.5218 -6.6038,45.6265 9.3054,-9.0053 27.3158,-39.4729 25.5148,-41.7242 37.5217,-52.8306 12.1571,-11.2565 25.0645,-11.2565 9.7557,0 15.459,13.0575 5.8534,13.0576 7.0541,62.2861 0.3002,12.3071 2.2513,18.3106 1.9511,6.0035 2.8516,6.0035 7.0541,0 30.61778,-48.0278 12.6073,-25.3647 24.46417,-38.5724 12.00696,-13.2076 26.56539,-13.2076 12.15704,0 17.71026,12.6073 5.55321,12.4572 7.95461,37.0715 2.2513,24.9144 6.90399,45.6264 4.80279,20.712 17.41009,26.5654 8.55495,4.0523 8.55495,9.4554 0,5.2531 -7.20417,10.8063 -7.20417,5.5532 -13.20765,5.5532 -12.00695,0 -21.46243,-14.7085 -9.45548,-14.7085 -14.25826,-63.6369 -2.10122,-19.6613 -4.05235,-27.9161 -1.95113,-8.2548 -6.15356,-8.2548 -6.30365,0 -15.0087,12.0069 -8.55495,12.007 -27.76608,48.7783 -15.00874,28.6666 -22.81324,38.2722 -7.6544,9.4554 -14.8586,9.4554 -6.4537,0 -11.5567,-5.1029 -5.1029,-5.2531 -6.4537,-12.4572 -1.3508,-7.3543 -2.8517,-35.8708 -2.2513,-47.4275 -8.2547,-55.232 z"
         style="font-style:normal;font-variant:normal;font-weight:normal;font-stretch:normal;font-family:'Segoe Print';-inkscape-font-specification:'Segoe Print'"
         id="path4211"
         inkscape:connector-curvature="0" />
    </g>
    <text
       sodipodi:linespacing="125%"
       id="text4273"
       y="2118.2664"
       x="-505.00793"
       style="font-style:normal;font-variant:normal;font-weight:400;font-size:14.0625px;line-height:125%;font-family:Arial;text-align:start;letter-spacing:0px;word-spacing:0px;text-anchor:start;fill:#000000;fill-opacity:1;stroke:none"
       xml:space="preserve"><tspan
         id="tspan4275"
         y="2024.1147"
         x="-980.65802"
         sodipodi:role="line"><tspan
           id="tspan4277"
           style="font-style:normal;font-variant:normal;font-weight:400;font-size:14.0625px;font-family:Arial;fill:#000000"
           dy="0"
           dx="0" /></tspan></text>
    <text
       sodipodi:linespacing="125%"
       id="text4519"
       y="2303.9297"
       x="-886.16595"
       style="font-style:normal;font-variant:normal;font-weight:400;font-size:14.0625px;line-height:125%;font-family:Calibri;text-align:start;letter-spacing:0px;word-spacing:0px;text-anchor:start;fill:#000000;fill-opacity:1;stroke:none"
       xml:space="preserve"><tspan
         id="tspan4521"
         y="2024.1147"
         x="-980.65802"
         sodipodi:role="line"><tspan
           id="tspan4523"
           style="font-style:normal;font-variant:normal;font-weight:400;font-size:14.0625px;font-family:Calibri;fill:#000000"
           dy="0"
           dx="0" /></tspan></text>
    <text
       sodipodi:linespacing="125%"
       id="text4563"
       y="2347.9258"
       x="-923.12262"
       style="font-style:normal;font-variant:normal;font-weight:400;font-size:14.0625px;line-height:125%;font-family:Calibri;text-align:start;letter-spacing:0px;word-spacing:0px;text-anchor:start;fill:#000000;fill-opacity:1;stroke:none"
       xml:space="preserve"><tspan
         id="tspan4565"
         y="2024.1147"
         x="-980.65802"
         sodipodi:role="line"><tspan
           id="tspan4567"
           style="font-style:normal;font-variant:normal;font-weight:400;font-size:14.0625px;font-family:Calibri;fill:#000000"
           dy="0"
           dx="0" /></tspan></text>
    <text
       sodipodi:linespacing="125%"
       id="text4861"
       y="2586.3843"
       x="-624.82935"
       style="font-style:normal;font-variant:normal;font-weight:400;font-size:14.0625px;line-height:125%;font-family:Calibri;text-align:start;letter-spacing:0px;word-spacing:0px;text-anchor:start;fill:#000000;fill-opacity:1;stroke:none"
       xml:space="preserve"><tspan
         id="tspan4863"
         y="2024.1147"
         x="-980.65802"
         sodipodi:role="line"><tspan
           id="tspan4865"
           style="font-style:normal;font-variant:normal;font-weight:400;font-size:14.0625px;font-family:Calibri;fill:#ff0000"
           dy="0"
           dx="0" /></tspan></text>
    <g
       transform="matrix(0.98452165,0.17526302,-0.17526302,0.98452165,0,0)"
       style="font-style:normal;font-weight:normal;font-size:521.43963623px;line-height:125%;font-family:sans-serif;letter-spacing:0px;word-spacing:0px;fill:#000000;fill-opacity:1;stroke:none;stroke-width:1px;stroke-linecap:butt;stroke-linejoin:miter;stroke-opacity:1"
       id="text5264">
      <path
         d="m 985.28156,635.81424 q -6.36523,0 -17.56804,-2.03687 -11.2028,-2.03688 -15.27655,-5.09219 -3.30992,-27.24318 12.73046,-102.3529 12.98507,-60.59699 12.98507,-84.78486 0,-34.11763 12.47585,-46.08426 12.47585,-11.96664 20.87795,-11.96664 6.3652,0 12.9851,5.3468 6.6198,5.34679 6.6198,11.96663 0,5.6014 -28.007,129.08686 -11.71202,51.68567 -12.22124,79.18346 -0.50922,17.82265 -5.6014,26.73397 z m 0,75.61893 q 0,25.20631 -12.73046,35.64529 -12.47585,10.43898 -21.64179,10.43898 -18.84108,0 -18.84108,-24.6971 0,-9.67515 9.16593,-22.91482 9.16594,-13.49429 18.84109,-13.49429 6.36523,0 15.78577,5.6014 9.67515,5.6014 9.42054,9.42054 z"
         style="font-style:normal;font-variant:normal;font-weight:normal;font-stretch:normal;font-family:'Segoe Print';-inkscape-font-specification:'Segoe Print'"
         id="path4162" />
    </g>
    <g
       id="g4203"
       transform="translate(-52.643421,-680.31497)">
      <path
         id="rect4166"
         d="m -134.5332,1778.7637 c -1.69754,0 -3.38354,0.2733 -4.69922,1.0468 -4.10881,2.4155 -5.53906,8.1641 -5.53906,8.1641 l -7.79297,34.8281 c 0,0 -3.02936,7.9893 0.0918,12.9102 3.4821,5.4899 10.99805,6.5683 10.99805,6.5683 l 15.26758,3.418 1.71875,-7.6816 31.529296,7.0566 c -9.523206,23.114 -32.951976,86.8353 -40.208986,107.4297 -13.1651,62.1359 -10.75033,78.505 -15.98633,145.0723 -1.6009,8.0047 -2.40039,13.4074 -2.40039,16.209 0,3.8022 1.50026,7.0039 4.50196,9.6054 3.0017,2.6015 6.70492,3.9024 11.10742,3.9024 3.7021,0 7.80394,-2.501 12.30664,-7.5039 4.5026,-5.1029 11.50622,-15.8601 21.01172,-32.2696 31.818497,-54.9318 52.980225,-82.3965 63.486325,-82.3965 4.4025,0 7.553978,3.2018 9.455078,9.6055 1.9011,6.4037 3.703297,20.0102 5.404297,40.8223 1.701,22.0127 5.553141,37.4234 11.556641,46.2285 6.0034996,8.705 12.90643713,13.0566 20.7109371,13.0566 3.4019999,0 6.6057219,-1.1014 9.6074219,-3.3027 3.0017,-2.2013 4.501953,-4.6016 4.501953,-7.2031 0,-2.9017 -2.251306,-7.4043 -6.753906,-13.5078 -8.8051001,-11.9069 -14.45943762,-31.2181 -16.9609376,-57.9336 -2.5014,-25.1145 -5.7516063,-41.3246 -9.7539064,-48.6289 -4.0023,-7.3042 -9.205675,-10.9551 -15.609375,-10.9551 -24.1139,0 -54.782406,34.3696 -92.003908,103.1094 l -0.59961,0 c -1.1006,0 -1.65234,-0.6001 -1.65234,-1.8008 0,-5.8033 2.45267,-20.9624 7.35547,-45.4766 4.9029,-24.5142 9.55453,-44.7255 13.957029,-60.6347 8.649906,-30.8514 34.566821,-95.4307 36.599609,-116.7969 l 42.291016,9.4648 -1.71875,7.6797 15.2656248,3.418 c 0,0 7.26004448,2.2262 12.75,-1.2559 4.9208652,-3.1211 5.5859372,-11.6387 5.5859372,-11.6387 l 7.794922,-34.8281 c 0,0 1.157889,-5.8096 -1.529297,-9.7461 -2.753532,-4.0336 -11.1484374,-5.0117 -11.1484372,-5.0117 l -14.7617188,-3.3047 -1.228516,5.4864 -103.453129,-23.1524 1.22852,-5.4863 -14.76172,-3.3028 c 0,0 -3.78691,-1.2726 -7.52148,-1.2636 z"
         style="opacity:1;fill:#ffffff;fill-opacity:1;stroke:#000000;stroke-width:1.25;stroke-linecap:butt;stroke-miterlimit:4;stroke-dasharray:none"
         inkscape:connector-curvature="0" />
      <path
         inkscape:connector-curvature="0"
         id="path4176"
         style="font-style:normal;font-variant:normal;font-weight:normal;font-stretch:normal;font-size:medium;line-height:125%;font-family:'Segoe Print';-inkscape-font-specification:'Segoe Print';letter-spacing:0px;word-spacing:0px;fill:#ffffff;fill-opacity:1;stroke:#000000;stroke-width:1.25;stroke-linecap:butt;stroke-linejoin:miter;stroke-miterlimit:4;stroke-dasharray:none;stroke-opacity:1"
         d="m 97.439,1920.4734 q -3.1518,0 -4.8028,-6.754 -0.6003,-2.1012 -1.6509,-4.6526 -4.0524,-9.7557 -4.0524,-16.9599 0,-6.0034 7.0541,-12.157 7.2042,-6.3037 15.9092,-6.3037 4.3526,0 9.7557,3.452 5.4031,3.3019 5.4031,6.4538 0,4.9528 -3.7522,16.8097 -3.602,11.8569 -11.7067,16.0593 -7.9546,4.0524 -12.1571,4.0524 z m -19.6614,167.6471 q 0,11.4066 3.1519,25.6648 0.6003,2.7016 0.6003,4.5026 0,2.7016 -4.9529,6.904 -4.9528,4.3526 -10.5061,4.3526 -14.5584,0 -14.5584,-26.7155 0,-27.616 11.4066,-87.3506 3.9023,-20.8621 3.9023,-25.6649 0,-9.4554 3.452,-16.0593 3.452,-6.7539 9.7556,-6.7539 7.6545,0 12.007,3.7522 4.5026,3.6021 4.5026,8.1047 0,4.5026 -2.1012,11.8568 -11.2565,39.623 -13.9581,56.7329 -2.7016,17.1099 -2.7016,40.6736 z" />
      <path
         inkscape:connector-curvature="0"
         id="path4178"
         style="font-style:normal;font-variant:normal;font-weight:normal;font-stretch:normal;font-size:medium;line-height:125%;font-family:'Segoe Print';-inkscape-font-specification:'Segoe Print';letter-spacing:0px;word-spacing:0px;fill:#ffffff;fill-opacity:1;stroke:#000000;stroke-width:1.25;stroke-linecap:butt;stroke-linejoin:miter;stroke-miterlimit:4;stroke-dasharray:none;stroke-opacity:1"
         d="m 199.0479,1970.0021 q 15.4589,-1.2007 29.1169,-2.8517 13.5078,-1.5009 22.513,-1.5009 11.4066,0 14.4083,2.1012 3.0018,2.1013 3.0018,7.3543 0,12.157 -16.9598,13.2077 -21.7626,1.3507 -40.0733,3.7521 -18.3106,2.4014 -19.8114,4.0524 -1.3508,1.5008 -9.0052,35.7207 -7.6545,34.0697 -7.6545,44.2756 0,16.5096 4.3525,22.0628 4.3526,5.4031 13.0576,5.4031 12.9075,0 35.8708,-19.3612 8.8551,-7.9546 13.6579,-7.9546 6.4537,0 6.4537,6.904 0,10.8063 -20.862,28.0663 -20.712,17.1099 -42.4747,17.1099 -36.321,0 -36.321,-42.7748 0,-15.459 7.5044,-47.8777 7.3542,-32.2687 7.3542,-38.7225 0,-2.2513 -3.6021,-2.2513 l -15.609,1.3508 q -19.2111,0 -19.2111,-15.3089 0,-8.705 8.8551,-8.705 l 30.9179,0 q 3.1518,0 5.5532,-2.8517 2.4014,-2.8516 7.0541,-19.061 4.6527,-16.3595 8.2548,-32.2687 3.6021,-15.7591 14.1082,-15.7591 6.4537,0 10.0558,4.5026 3.6021,4.5026 3.6021,8.4049 0,2.1012 -5.4032,21.4624 l -8.705,31.5183 z" />
      <path
         inkscape:connector-curvature="0"
         id="path4180"
         style="font-style:normal;font-variant:normal;font-weight:normal;font-stretch:normal;font-size:medium;line-height:125%;font-family:'Segoe Print';-inkscape-font-specification:'Segoe Print';letter-spacing:0px;word-spacing:0px;fill:#ffffff;fill-opacity:1;stroke:#000000;stroke-width:1.25;stroke-linecap:butt;stroke-linejoin:miter;stroke-miterlimit:4;stroke-dasharray:none;stroke-opacity:1"
         d="m 293.4526,2006.7734 q -4.8028,0 -8.1047,-6.4538 -3.302,-6.4537 -3.302,-12.0069 0,-7.3543 3.452,-29.4171 3.6021,-22.0628 10.9564,-40.6735 7.3542,-18.7609 14.8586,-18.7609 4.3525,0 6.904,3.452 2.5515,3.3019 2.5515,7.9546 0,3.7522 -3.452,11.5567 -3.3019,7.5043 -3.9023,9.9057 -0.4502,1.9512 -4.2024,15.1588 -5.103,16.8097 -5.103,32.1186 0,13.808 -2.1012,20.5619 -1.9511,6.6039 -8.5549,6.6039 z" />
      <path
         inkscape:connector-curvature="0"
         id="path4182"
         style="font-style:normal;font-variant:normal;font-weight:normal;font-stretch:normal;font-size:medium;line-height:125%;font-family:'Segoe Print';-inkscape-font-specification:'Segoe Print';letter-spacing:0px;word-spacing:0px;fill:#ffffff;fill-opacity:1;stroke:#000000;stroke-width:1.25;stroke-linecap:butt;stroke-linejoin:miter;stroke-miterlimit:4;stroke-dasharray:none;stroke-opacity:1"
         d="m 481.3614,2070.5603 q 0,15.3089 -27.1657,36.9214 -27.0157,21.6125 -55.8323,21.6125 -24.164,0 -37.3717,-14.2583 -13.0576,-14.2582 -13.0576,-39.773 0,-42.9249 28.9668,-81.6473 28.9668,-38.7224 63.3367,-38.7224 11.2565,0 18.3106,7.3542 7.2042,7.3543 7.2042,17.7103 0,23.1134 -22.6631,44.2756 -22.6632,21.1623 -60.6352,41.5741 -7.8045,4.0524 -7.8045,10.5061 0,12.4572 7.2042,19.9616 7.2042,7.5043 21.3123,7.5043 32.2687,0 65.8882,-35.7207 4.9529,-4.9528 7.5043,-4.9528 4.8028,0 4.8028,7.6544 z M 377.051,2047.1467 q 63.6369,-37.8219 63.6369,-60.7852 0,-9.0052 -8.1047,-9.0052 -13.808,0 -31.2181,20.2617 -17.26,20.2618 -24.3141,49.5287 z" />
      <path
         inkscape:connector-curvature="0"
         id="path4184"
         style="font-style:normal;font-variant:normal;font-weight:normal;font-stretch:normal;font-size:medium;line-height:125%;font-family:'Segoe Print';-inkscape-font-specification:'Segoe Print';letter-spacing:0px;word-spacing:0px;fill:#ffffff;fill-opacity:1;stroke:#000000;stroke-width:1.25;stroke-linecap:butt;stroke-linejoin:miter;stroke-miterlimit:4;stroke-dasharray:none;stroke-opacity:1"
         d="m 625.8952,2002.721 q -13.9581,0.3002 -59.7346,82.6979 -15.459,27.7661 -18.0105,30.3176 -2.5515,2.4014 -9.4555,4.3525 -6.7539,1.9511 -11.2565,1.9511 -10.0558,0 -10.0558,-39.1727 0,-22.0628 9.4555,-79.8462 3.9022,-23.4136 3.9022,-33.4694 0,-9.9057 8.8552,-9.9057 16.6596,0 16.6596,24.0139 0,11.2565 -5.5532,44.1255 -6.4537,37.5218 -6.6038,45.6265 9.3054,-9.0053 27.3158,-39.4729 25.5148,-41.7242 37.5217,-52.8306 12.1571,-11.2565 25.0645,-11.2565 9.7557,0 15.459,13.0575 5.8534,13.0576 7.0541,62.2861 0.3002,12.3071 2.2513,18.3106 1.9511,6.0035 2.8516,6.0035 7.0541,0 30.61778,-48.0278 12.6073,-25.3647 24.46417,-38.5724 12.00696,-13.2076 26.56539,-13.2076 12.15704,0 17.71026,12.6073 5.55321,12.4572 7.95461,37.0715 2.2513,24.9144 6.90399,45.6264 4.80279,20.712 17.41009,26.5654 8.55495,4.0523 8.55495,9.4554 0,5.2531 -7.20417,10.8063 -7.20417,5.5532 -13.20765,5.5532 -12.00695,0 -21.46243,-14.7085 -9.45548,-14.7085 -14.25826,-63.6369 -2.10122,-19.6613 -4.05235,-27.9161 -1.95113,-8.2548 -6.15356,-8.2548 -6.30365,0 -15.0087,12.0069 -8.55495,12.007 -27.76608,48.7783 -15.00874,28.6666 -22.81324,38.2722 -7.6544,9.4554 -14.8586,9.4554 -6.4537,0 -11.5567,-5.1029 -5.1029,-5.2531 -6.4537,-12.4572 -1.3508,-7.3543 -2.8517,-35.8708 -2.2513,-47.4275 -8.2547,-55.232 z" />
      <g
         transform="matrix(0.98452165,0.17526302,-0.17526302,0.98452165,11.453698,1351.5364)"
         style="font-style:normal;font-weight:normal;font-size:521.43963623px;line-height:125%;font-family:sans-serif;letter-spacing:0px;word-spacing:0px;fill:#ffffff;fill-opacity:1;stroke:#000000;stroke-width:1.25;stroke-linecap:butt;stroke-linejoin:miter;stroke-miterlimit:4;stroke-dasharray:none;stroke-opacity:1"
         id="g4186">
        <path
           inkscape:connector-curvature="0"
           d="m 985.28156,635.81424 q -6.36523,0 -17.56804,-2.03687 -11.2028,-2.03688 -15.27655,-5.09219 -3.30992,-27.24318 12.73046,-102.3529 12.98507,-60.59699 12.98507,-84.78486 0,-34.11763 12.47585,-46.08426 12.47585,-11.96664 20.87795,-11.96664 6.3652,0 12.9851,5.3468 6.6198,5.34679 6.6198,11.96663 0,5.6014 -28.007,129.08686 -11.71202,51.68567 -12.22124,79.18346 -0.50922,17.82265 -5.6014,26.73397 z m 0,75.61893 q 0,25.20631 -12.73046,35.64529 -12.47585,10.43898 -21.64179,10.43898 -18.84108,0 -18.84108,-24.6971 0,-9.67515 9.16593,-22.91482 9.16594,-13.49429 18.84109,-13.49429 6.36523,0 15.78577,5.6014 9.67515,5.6014 9.42054,9.42054 z"
           style="font-style:normal;font-variant:normal;font-weight:normal;font-stretch:normal;font-family:'Segoe Print';-inkscape-font-specification:'Segoe Print';fill:#ffffff;stroke:#000000;stroke-width:1.25;stroke-miterlimit:4;stroke-dasharray:none"
           id="path4188" />
      </g>
    </g>
  </g>
</svg>
