<?xml version="1.0" encoding="UTF-8" standalone="no"?>
<!-- Created with Inkscape (http://www.inkscape.org/) -->

<svg
   xmlns:dc="http://purl.org/dc/elements/1.1/"
   xmlns:cc="http://creativecommons.org/ns#"
   xmlns:rdf="http://www.w3.org/1999/02/22-rdf-syntax-ns#"
   xmlns:svg="http://www.w3.org/2000/svg"
   xmlns="http://www.w3.org/2000/svg"
   xmlns:sodipodi="http://sodipodi.sourceforge.net/DTD/sodipodi-0.dtd"
   xmlns:inkscape="http://www.inkscape.org/namespaces/inkscape"
   width="210mm"
   height="297mm"
   viewBox="0 0 744.09448819 1052.3622047"
   id="svg2"
   version="1.1"
   inkscape:version="0.91 r13725"
   sodipodi:docname="game_over.svg">
  <defs
     id="defs4" />
  <sodipodi:namedview
     id="base"
     pagecolor="#ffffff"
     bordercolor="#666666"
     borderopacity="1.0"
     inkscape:pageopacity="0.0"
     inkscape:pageshadow="2"
     inkscape:zoom="0.7"
     inkscape:cx="483.88677"
     inkscape:cy="692.56653"
     inkscape:document-units="px"
     inkscape:current-layer="layer1"
     showgrid="false"
     inkscape:window-width="1920"
     inkscape:window-height="1016"
     inkscape:window-x="0"
     inkscape:window-y="27"
     inkscape:window-maximized="1" />
  <metadata
     id="metadata7">
    <rdf:RDF>
      <cc:Work
         rdf:about="">
        <dc:format>image/svg+xml</dc:format>
        <dc:type
           rdf:resource="http://purl.org/dc/dcmitype/StillImage" />
        <dc:title></dc:title>
      </cc:Work>
    </rdf:RDF>
  </metadata>
  <g
     inkscape:label="Layer 1"
     inkscape:groupmode="layer"
     id="layer1">
    <path
       style="fill:#000000"
       d="m 198.73872,552.04078 c -0.0651,-0.4125 -0.0651,-1.0875 0,-1.5 0.0651,-0.4125 -0.44408,-0.6375 -1.13158,-0.5 -0.6875,0.1375 -1.1,-0.425 -0.91667,-1.25 0.18334,-0.825 -2.6e-4,-1.1664 -0.40799,-0.75868 -0.40773,0.40773 -1.34523,0.24013 -2.08333,-0.37244 -1.08786,-0.90285 -1.34201,-10.01859 -1.34201,-48.13496 l 0,-47.0212 3.25,-3.34571 3.25,-3.34571 35.05383,-0.0106 35.05384,-0.0106 3.19616,3.29761 3.19617,3.2976 0,47.12959 0,47.12959 -3.72784,3.07281 -3.72785,3.0728 -34.77215,0 c -19.12469,-10e-5 -34.82545,-0.3376 -34.89058,-0.7501 z m 54.11842,-38.19098 c 0,-17.17024 -0.36859,-27.16879 -1.01631,-27.5691 -0.55897,-0.34546 -0.71183,-1.15952 -0.33968,-1.80902 0.37215,-0.64949 0.30038,-0.83928 -0.1595,-0.42175 -1.14146,1.03635 -5.5802,-3.27379 -4.79336,-4.65451 0.34622,-0.60755 0.29383,-0.80361 -0.11644,-0.43569 -0.41026,0.36792 -1.83241,-0.27573 -3.16032,-1.43034 -2.21134,-1.92273 -2.41439,-2.84103 -2.41439,-10.91895 l 0,-8.81966 -18.5,0 -18.5,0 0,41.5 0,41.5 24.5,0 24.5,0 0,-26.94098 z m 55.57785,36.02224 c -1.6995,-1.7739 -2.49676,-3.40345 -2.03258,-4.15451 0.49112,-0.79464 0.35163,-0.98107 -0.39076,-0.52224 -0.84842,0.52435 -1.15451,-2.49929 -1.15451,-11.40451 0,-9.41141 0.27919,-11.95737 1.25,-11.39869 0.72624,0.41793 0.90083,0.33791 0.41667,-0.19098 -0.45834,-0.50068 -1.35834,-0.93078 -2,-0.95578 -0.64167,-0.025 -1.01667,-0.7 -0.83334,-1.5 0.18334,-0.8 -0.0151,-1.10611 -0.44097,-0.68024 -0.42587,0.42587 -2.93837,-1.35722 -5.58333,-3.96241 l -4.80903,-4.73672 0,-29.09142 0,-29.09143 3.34772,-3.24474 3.34773,-3.24474 11.57213,0.16021 c 11.15129,0.15438 11.66559,0.25775 14.14184,2.84239 l 2.5697,2.68219 0.26044,44.82733 0.26044,44.82733 11.97285,-0.17734 c 6.58507,-0.0975 12.07539,-0.27987 12.20071,-0.40519 0.12532,-0.12532 0.29032,-6.73754 0.36665,-14.69381 0.12571,-13.10159 0.3327,-14.67526 2.19465,-16.68514 1.13072,-1.22055 2.40935,-2.00071 2.8414,-1.73369 0.43205,0.26702 1.11117,-0.0414 1.50915,-0.68533 0.49214,-0.7963 0.27433,-0.90647 -0.6809,-0.34441 -0.77248,0.45452 -0.55687,-0.14034 0.47914,-1.32191 1.036,-1.18158 2.34303,-1.8644 2.90451,-1.51739 0.56147,0.34701 0.73128,0.16239 0.37736,-0.41027 -0.629,-1.01774 1.61992,-3.65067 2.42649,-2.84082 0.22439,0.2253 0.2719,-11.9286 0.10556,-27.00868 l -0.30243,-27.41832 5.55243,0 5.55243,0 0,31.3 c 0,23.65509 -0.30531,31.62893 -1.25,32.6467 -1,1.07737 -1,1.20556 0,0.64099 3.02066,-1.7054 0.77555,1.52313 -4.75,6.83062 l -6,5.76322 0,11.83251 c 0,11.27073 -0.12291,11.97858 -2.58889,14.90923 l -2.5889,3.07673 -23.72401,0 -23.72402,0 -2.79633,-2.91874 z m 56.96327,-44.14779 c 1.02606,-1.66021 0.10511,-1.89043 -1.33055,-0.33261 -0.70918,0.76953 -0.84824,1.39914 -0.30901,1.39914 0.53922,0 1.27702,-0.47994 1.63956,-1.06653 z m 31.80069,43.60834 -3.36151,-3.36151 0.25985,-47.34015 c 0.20435,-37.22862 0.52684,-47.28675 1.50985,-47.09015 0.6875,0.1375 1.1375,-0.3125 1,-1 -0.1375,-0.6875 0.425,-1.1 1.25,-0.91667 0.825,0.18334 1.1664,-2.6e-4 0.75868,-0.40799 -0.40773,-0.40773 -0.24013,-1.34523 0.37244,-2.08333 0.88961,-1.07191 7.60396,-1.34201 33.36061,-1.34201 l 32.24684,0 0.13643,6.03526 0.13643,6.03526 -23.50653,-0.28526 -23.50654,-0.28526 8.2e-4,12.25 8.2e-4,12.25 23.5,0 23.5,0 0,5.5 0,5.5 -17.75,-7.9e-4 -17.75,-7.9e-4 0.28463,24.00079 0.28462,24.00079 17.46538,0 17.46537,0 0,6.01985 0,6.01985 -32.14834,-0.0682 -32.14834,-0.0682 -3.36151,-3.36151 z m 89.85436,0.16058 -3.19617,-3.2976 0,-47.80939 c 0,-42.7975 0.16269,-47.74695 1.55194,-47.21384 0.88992,0.34149 1.29132,0.17385 0.94098,-0.39301 -0.33602,-0.5437 -0.0594,-0.98855 0.61473,-0.98855 0.67413,0 0.92959,-0.2961 0.56769,-0.65799 -0.77514,-0.77514 1.14971,-3.34201 2.50612,-3.34201 0.51512,0 0.619,0.5625 0.23085,1.25 -0.56457,1 -0.43638,1 0.64099,0 1.01064,-0.93808 8.32273,-1.25 29.30231,-1.25 l 27.95561,0 3.34439,2.55089 3.34439,2.55089 0,12.41463 0,12.41463 3.0231,3.09259 c 1.66271,1.70093 2.78037,3.48535 2.48369,3.96538 -0.29668,0.48004 -0.0125,1.19842 0.63141,1.5964 0.73122,0.45192 0.90292,0.29014 0.45729,-0.4309 -1.24526,-2.01487 0.9713,-1.24454 3.17811,1.1045 2.07033,2.20376 2.1241,3.05977 2.19855,35 l 0.0763,32.74099 -6.05252,0 -6.05252,0 0.27828,-30.25 0.27829,-30.25 -18.25,0.2927 -18.25,0.2927 -7.8e-4,26.2073 -7.8e-4,26.2073 -3.33761,3.75 -3.33761,3.75 -10.96544,0 -10.96545,0 -3.19616,-3.29761 z m 56.8039,-79.95239 7e-5,-12.25 -18.25007,0.20139 -18.25007,0.20138 -0.28572,10.73435 c -0.15714,5.90389 -0.0588,11.32577 0.21862,12.04861 0.39082,1.01845 4.56285,1.31427 18.53572,1.31427 l 18.03138,0 7e-5,-12.25 z M 198.97903,430.88727 c -0.80281,-0.50849 -1.05141,-1.40152 -0.5955,-2.1392 0.52477,-0.84909 0.38033,-1.01767 -0.43842,-0.51166 -0.71553,0.44222 -1.80133,-0.0113 -2.6227,-1.09549 -1.1496,-1.51742 -1.40738,-9.43439 -1.43347,-44.02341 l -0.0318,-42.17328 2.58889,-3.07672 2.5889,-3.07673 32.10639,0 32.10638,0 2.80472,2.68709 c 2.60435,2.49513 2.80472,3.24525 2.80472,10.5 l 0,7.81291 -5.09651,0 -5.09652,0 0.34652,-5.00062 0.34651,-5.00062 -21.25,6.2e-4 c -11.6875,3.4e-4 -21.5875,-0.001 -22,-0.004 -0.4125,-0.002 -0.87752,4.7024 -1.03338,10.45507 -0.27693,10.22155 -0.22595,10.49704 2.24142,12.11372 1.38863,0.90987 2.23412,2.12461 1.87886,2.69943 -0.38995,0.63097 -0.15908,0.74424 0.58262,0.28585 0.72509,-0.44813 2.22269,0.17468 3.65451,1.51981 l 2.42597,2.27937 -10e-4,23.07568 -0.001,23.07569 16.46632,-0.29634 16.46632,-0.29633 0.28501,-23.45448 0.28502,-23.45449 -11.75,8.2e-4 -11.75007,8.2e-4 0,-3.5 0,-3.5 12.32,0 12.32,0 4.20632,3.60045 4.20631,3.60045 -0.0856,26.32635 c -0.0654,20.11384 -0.38834,26.57755 -1.36833,27.39087 -0.70547,0.58549 -1.69127,0.73093 -2.19067,0.3232 -0.49939,-0.40772 -0.57439,-0.33272 -0.16667,0.16667 0.40773,0.4994 0.24013,1.5119 -0.37244,2.25 -0.88929,1.07153 -7.48834,1.33892 -32.74133,1.3267 -17.39515,-0.008 -32.2477,-0.40811 -33.00567,-0.8882 z m -2.6646,-7.02739 c 0.31644,-0.512 0.19299,-1.1672 -0.27431,-1.45601 -0.46731,-0.28881 -0.84965,0.13009 -0.84965,0.9309 0,1.68617 0.31534,1.83349 1.12396,0.52511 z m 90.67383,6.58889 c -0.61257,-0.7381 -0.78017,-1.7506 -0.37244,-2.25 0.40772,-0.49939 0.33272,-0.57439 -0.16667,-0.16667 -0.4994,0.40773 -1.5119,0.24013 -2.25,-0.37244 -1.06193,-0.88132 -1.33881,-6.67108 -1.3267,-27.74132 0.008,-14.64516 0.40811,-27.24771 0.8882,-28.00568 0.48009,-0.75796 1.36804,-1.07209 1.97323,-0.69806 0.7157,0.44233 0.86888,0.0769 0.4382,-1.04549 -0.51312,-1.33715 -0.27376,-1.57651 1.06339,-1.06339 1.06671,0.40933 1.48194,0.26799 1.08752,-0.3702 -0.87485,-1.41553 1.5536,-4.15125 3.14344,-3.54118 0.85401,0.32772 1.07877,-0.0529 0.66617,-1.1281 -0.43482,-1.13314 -0.1932,-1.45718 0.80093,-1.07409 1.19149,0.45914 1.37262,-1.32724 1.11088,-10.9562 -0.30924,-11.37624 -0.28201,-11.53685 2.43709,-14.37497 l 2.74982,-2.8702 20.46852,0 20.46852,0 3.40171,2.59461 3.40171,2.59461 -0.30732,11.78028 c -0.21158,8.11046 0.0278,11.651 0.76834,11.3653 0.59161,-0.22824 3.17911,1.83378 5.75,4.58227 l 4.67434,4.99725 0,29.54284 0,29.54284 -5,0 -5,0 0,-27 0,-27 -16.5,0 -16.5,0 -0.10596,21.25 c -0.0583,11.6875 -0.0243,22.48813 0.0755,24.00141 0.12411,1.8817 -0.76636,3.69925 -2.81711,5.75 -2.94903,2.94902 -3.17141,2.99859 -13.45307,2.99859 -7.52591,0 -10.76648,-0.37593 -11.56825,-1.34201 z m 6.33455,-62.50813 c -0.56346,-0.59314 -2.46567,0.91014 -2.46567,1.94858 0,0.53923 0.62961,0.40017 1.39914,-0.30901 0.76953,-0.70919 1.24947,-1.44699 1.06653,-1.63957 z m 43.53433,-11.14986 0,-11 -10.93566,0 -10.93566,0 -0.31434,10.58749 c -0.17289,5.82311 -0.12684,10.77311 0.10233,11 0.22916,0.22688 5.29166,0.41251 11.25,0.41251 l 10.83333,0 0,-11 z m 39.55089,71.65561 -2.55089,-3.34439 0,-42.53692 0,-42.53692 3.34225,-2.54926 3.34224,-2.54925 23.45353,-0.10128 23.45352,-0.10128 2.37854,2.53185 c 2.97274,3.16433 4.08237,3.16936 7.02992,0.0318 2.33884,-2.48958 2.42474,-2.5 20.60151,-2.5 l 18.25288,0 3.07281,3.72784 3.0728,3.72785 0,41.96744 0,41.96743 -2.68709,2.80472 c -2.25977,2.35873 -3.50224,2.80476 -7.81291,2.80476 -4.29037,0 -5.5566,-0.44964 -7.76887,-2.75876 l -2.64306,-2.75875 -0.065,-39.87067 c -0.0358,-21.92887 -0.23631,-40.14993 -0.44568,-40.49125 -0.20937,-0.34131 -5.14993,-0.47912 -10.97902,-0.30623 l -10.59837,0.31434 0,42.98792 0,42.98792 -5.25,-0.30226 -5.25,-0.30226 -0.26074,-42.75 c -0.22605,-37.06407 -0.45881,-42.75391 -1.75,-42.77941 -0.81909,-0.0162 -8.12676,-0.0438 -16.23926,-0.0614 l -14.75,-0.032 -0.29052,8.06619 -0.29052,8.06619 5.54052,5.32362 5.54052,5.32363 0,26.68025 0,26.68026 -2.6653,2.99134 c -2.64814,2.97208 -2.7347,2.99133 -13.44911,2.99133 l -10.78381,0 -2.55089,-3.34439 z m 129.1362,0.53967 -2.68709,-2.80472 0,-42.7722 0,-42.77221 2.92308,-2.92307 2.92307,-2.92308 29.07693,0 29.07692,0 0,5.5 0,5.5 -21.53383,0 -21.53383,0 0.28383,10.75 0.28383,10.75 21.25,0.26989 21.25,0.26989 0,5.02411 0,5.02411 -15.75,-0.14069 -15.75,-0.14069 -0.19778,22.74446 c -0.14882,17.11521 0.0863,22.4604 0.95,21.5967 0.7603,-0.7603 6.14412,-1.14778 15.94778,-1.14778 l 14.8,0 0,5.5 0,5.5 -29.31291,0 -29.31291,0 -2.68709,-2.80472 z"
       id="path4151"
       inkscape:connector-curvature="0" />
  </g>
</svg>
