<?xml version="1.0" encoding="UTF-8" standalone="no"?>
<!-- Created with Inkscape (http://www.inkscape.org/) -->

<svg
   xmlns:dc="http://purl.org/dc/elements/1.1/"
   xmlns:cc="http://creativecommons.org/ns#"
   xmlns:rdf="http://www.w3.org/1999/02/22-rdf-syntax-ns#"
   xmlns:svg="http://www.w3.org/2000/svg"
   xmlns="http://www.w3.org/2000/svg"
   xmlns:sodipodi="http://sodipodi.sourceforge.net/DTD/sodipodi-0.dtd"
   xmlns:inkscape="http://www.inkscape.org/namespaces/inkscape"
   width="210mm"
   height="297mm"
   viewBox="0 0 744.09448819 1052.3622047"
   id="svg2"
   version="1.1"
   inkscape:version="0.91 r13725"
   sodipodi:docname="countdownsvg.svg"
   inkscape:export-filename="/home/avishay/projects/hitem/software/host/game/static/countdown_3.png"
   inkscape:export-xdpi="69.143677"
   inkscape:export-ydpi="69.143677">
  <defs
     id="defs4" />
  <sodipodi:namedview
     id="base"
     pagecolor="#ffffff"
     bordercolor="#666666"
     borderopacity="1.0"
     inkscape:pageopacity="0.0"
     inkscape:pageshadow="2"
     inkscape:zoom="0.35"
     inkscape:cx="-60.714281"
     inkscape:cy="982.39751"
     inkscape:document-units="px"
     inkscape:current-layer="layer1"
     showgrid="false"
     inkscape:window-width="1920"
     inkscape:window-height="1031"
     inkscape:window-x="0"
     inkscape:window-y="25"
     inkscape:window-maximized="1" />
  <metadata
     id="metadata7">
    <rdf:RDF>
      <cc:Work
         rdf:about="">
        <dc:format>image/svg+xml</dc:format>
        <dc:type
           rdf:resource="http://purl.org/dc/dcmitype/StillImage" />
        <dc:title />
      </cc:Work>
    </rdf:RDF>
  </metadata>
  <g
     inkscape:label="Layer 1"
     inkscape:groupmode="layer"
     id="layer1">
    <text
       xml:space="preserve"
       style="font-style:normal;font-weight:normal;font-size:1066.01904297px;line-height:125%;font-family:sans-serif;letter-spacing:0px;word-spacing:0px;fill:#000000;fill-opacity:1;stroke:none;stroke-width:1px;stroke-linecap:butt;stroke-linejoin:miter;stroke-opacity:1"
       x="-604.08722"
       y="284.74149"
       id="text3336"
       sodipodi:linespacing="125%"
       transform="scale(0.99725975,1.0027478)"><tspan
         sodipodi:role="line"
         id="tspan3338"
         x="-604.08722"
         y="284.74149"
         style="font-style:normal;font-variant:normal;font-weight:normal;font-stretch:normal;font-family:'Demon Sker';-inkscape-font-specification:'Demon Sker'">2</tspan></text>
    <text
       sodipodi:linespacing="125%"
       id="text3340"
       y="294.10651"
       x="-1237.1311"
       style="font-style:normal;font-weight:normal;font-size:1131.85876465px;line-height:125%;font-family:sans-serif;letter-spacing:0px;word-spacing:0px;fill:#000000;fill-opacity:1;stroke:none;stroke-width:1px;stroke-linecap:butt;stroke-linejoin:miter;stroke-opacity:1"
       xml:space="preserve"><tspan
         style="font-style:normal;font-variant:normal;font-weight:500;font-stretch:normal;font-family:Kinnari;-inkscape-font-specification:'Kinnari Medium'"
         y="294.10651"
         x="-1237.1311"
         id="tspan3342"
         sodipodi:role="line">3</tspan></text>
    <text
       transform="scale(0.99725974,1.0027478)"
       sodipodi:linespacing="125%"
       id="text3348"
       y="284.74149"
       x="-65.468414"
       style="font-style:normal;font-weight:normal;font-size:1066.01904297px;line-height:125%;font-family:sans-serif;letter-spacing:0px;word-spacing:0px;fill:#000000;fill-opacity:1;stroke:none;stroke-width:1px;stroke-linecap:butt;stroke-linejoin:miter;stroke-opacity:1"
       xml:space="preserve"><tspan
         style="font-style:normal;font-variant:normal;font-weight:500;font-stretch:normal;font-family:KBLuckyClover;-inkscape-font-specification:'KBLuckyClover Medium'"
         y="284.74149"
         x="-65.468414"
         id="tspan3350"
         sodipodi:role="line">1</tspan></text>
    <g
       transform="scale(0.99725974,1.0027478)"
       style="font-style:normal;font-weight:normal;font-size:1066.01904297px;line-height:125%;font-family:sans-serif;letter-spacing:0px;word-spacing:0px;fill:#000000;fill-opacity:1;stroke:none;stroke-width:1px;stroke-linecap:butt;stroke-linejoin:miter;stroke-opacity:1"
       id="text3347"
       inkscape:export-filename="/home/avishay/projects/hitem/software/host/game/static/countdown_2.png"
       inkscape:export-xdpi="64.107803"
       inkscape:export-ydpi="64.107803">
      <path
         d="m -478.89629,466.7663 5.3301,0 0,6.39612 -5.3301,0 0,-6.39612 z m 111.932,67.1592 q 7.46214,-5.33009 6.39612,-10.66019 0,-6.39611 -5.3301,-11.72621 -4.26408,-5.33009 -10.66019,-8.52815 -5.33009,-4.26408 -6.39611,-5.33009 -2.13204,8.52815 -1.06602,11.72621 2.13204,2.13203 5.33009,4.26407 3.19806,2.13204 6.39612,6.39612 3.19805,4.26407 5.33009,13.85824 z m -126.85626,9.59417 q 4.26407,-2.13203 9.59417,-2.13203 2.13204,-11.72621 4.26407,-21.32038 3.19806,-10.66019 6.39612,-22.3864 -10.66019,0 -12.79223,2.13203 -2.13204,2.13204 -3.19806,5.3301 0,3.19806 -2.13204,6.39611 -6.39611,0 -12.79222,0 -5.3301,0 -11.72621,1.06602 2.13203,8.52815 9.59417,14.92427 7.46213,6.39611 12.79223,15.99028 z m 133.25238,6.39612 q 11.72621,-3.19806 23.45242,-5.3301 11.7262,-3.19805 25.58445,-6.39611 -8.52815,-9.59417 -17.0563,-10.66019 -7.46214,-2.13204 -13.85825,1.06602 -6.39611,3.19806 -11.72621,9.59417 -5.33009,6.39611 -6.39611,11.72621 z m -170.56305,4.26408 q 5.33009,-4.26408 8.52815,-7.46214 4.26408,-4.26407 9.59417,-8.52815 -12.79223,-5.3301 -14.92426,1.06602 -2.13204,6.39611 -3.19806,14.92427 z m -8.52815,0 0,-4.26408 -6.39612,0 0,4.26408 6.39612,0 z m 395.49306,19.18834 q 2.13204,2.13204 5.3301,3.19806 3.19805,1.06601 6.39611,3.19805 -2.13204,5.3301 -3.19806,6.39612 -1.06601,1.06602 -8.52815,3.19805 l 0,-15.99028 z m -93.80967,42.64076 q 3.19805,-1.06602 10.66019,-1.06602 -7.46214,0 -10.66019,1.06602 z M -462.906,657.58371 q 1.06602,-2.13204 7.46213,-8.52815 -5.33009,0 -6.39611,1.06602 0,1.06602 -1.06602,7.46213 z m -3.19806,14.92427 q -1.06602,-2.13204 -1.06602,-8.52815 0,6.39611 1.06602,8.52815 z m 156.7048,9.59417 q 13.85825,-3.19806 31.98057,-3.19806 -11.72621,-4.26407 -17.0563,-7.46213 -5.3301,-4.26408 -9.59417,-6.39611 -3.19806,-2.13204 -7.46214,-3.19806 -3.19805,-2.13204 -9.59417,-2.13204 -1.06602,4.26408 0,7.46213 2.13204,2.13204 11.72621,14.92427 z m -222.79798,0 q -3.19806,-4.26408 -3.19806,-7.46213 0,3.19805 3.19806,7.46213 z m 62.89512,5.3301 q 0,-1.06602 3.19806,-4.26408 -3.19806,3.19806 -3.19806,4.26408 z m -61.8291,25.58445 6.39611,0 0,5.3301 -6.39611,0 0,-5.3301 z m 76.75337,41.57475 q 3.19806,-21.32039 7.46213,-27.7165 4.26408,-7.46213 26.65048,-9.59417 -5.3301,5.33009 -8.52815,9.59417 -2.13204,3.19806 -4.26408,6.39611 -2.13204,3.19806 -4.26407,7.46214 -2.13204,3.19805 -5.3301,10.66019 -7.46213,0 -11.72621,3.19806 z m 104.46987,35.17862 q 7.46213,-3.19805 23.45242,-5.33009 -15.99029,0 -19.18835,1.06602 -2.13204,0 -4.26407,4.26407 z m 169.49702,37.31067 0,-6.39611 5.3301,0 0,6.39611 -5.3301,0 z m -77.81939,0 q 11.72621,-6.39611 14.92427,-19.18834 3.19806,-12.79223 5.3301,-22.3864 -4.26408,0 -8.52816,3.19805 -3.19805,9.59418 -6.39611,19.18835 -2.13204,8.52815 -5.3301,19.18834 z m -169.49702,24.51844 4.26407,0 0,6.39611 -4.26407,0 0,-6.39611 z m 174.82712,14.92426 q 8.52815,-1.06601 9.59417,-1.06601 1.06602,-1.06602 2.13204,-6.39612 -4.26408,-1.06602 -11.72621,-1.06602 l 0,8.52815 z m -164.16693,0 8.52815,0 0,7.46214 -8.52815,0 0,-7.46214 z m 133.25238,11.72621 6.39611,0 0,5.3301 -6.39611,0 0,-5.3301 z m -92.74366,14.92427 q -3.19806,-3.19806 -3.19806,-8.52815 -2.13203,2.13204 -3.19805,4.26407 -1.06602,2.13204 -3.19806,4.26408 l 9.59417,0 z m 180.15722,5.3301 4.26407,0 0,5.33009 -4.26407,0 0,-5.33009 z m -56.49901,11.72621 q 0,-5.3301 1.06602,-7.46214 1.06602,-2.13204 2.13204,-4.26407 -1.06602,2.13203 -2.13204,4.26407 -1.06602,2.13204 -1.06602,7.46214 z m -133.25238,4.26407 0,-4.26407 -5.3301,0 0,4.26407 5.3301,0 z m -30.91455,30.91455 q 6.39611,-6.39611 13.85824,-11.72621 7.46214,-5.33009 13.85825,-10.66019 -2.13204,-3.19805 -8.52815,-7.46213 -1.06602,5.3301 -4.26408,7.46213 -2.13203,1.06602 -18.12232,6.39612 0,3.19806 1.06602,7.46213 1.06602,3.19806 2.13204,8.52815 z m 76.75337,14.92427 0,-4.26408 -5.3301,0 0,4.26408 5.3301,0 z m 71.42327,20.25436 q -1.06602,-4.26407 -2.13203,-7.46213 -1.06602,-3.19806 -2.13204,-6.39612 l 10.66019,0 q -5.3301,6.39612 -6.39612,13.85825 z m -50.10289,0 q 0,-5.33009 1.06602,-7.46213 -3.19806,0 -3.19806,1.06602 0,1.06602 2.13204,6.39611 z m 180.15722,93.80972 q -2.13204,-5.3301 -3.19806,-10.6602 -1.06602,-6.3961 -2.13204,-11.7262 5.3301,6.3961 6.39612,9.5941 1.06602,2.1321 -1.06602,12.7923 z m -257.97661,0 0,-6.3962 -4.26408,0 0,6.3962 4.26408,0 z m -82.08347,0 0,-6.3962 -10.66019,0 0,6.3962 10.66019,0 z m 66.09318,4.264 0,-10.6602 -4.26407,0 0,10.6602 4.26407,0 z m -10.66019,0 0,-10.6602 -4.26407,0 0,10.6602 4.26407,0 z m 37.31067,10.6602 q 2.13204,-2.132 3.19806,-4.2641 1.06602,-2.132 3.19805,-4.264 -2.13203,2.132 -3.19805,4.264 -1.06602,2.1321 -3.19806,4.2641 z m -83.14949,0 0,-6.3961 -4.26407,0 0,6.3961 4.26407,0 z m 52.23494,15.9903 q -1.06602,-4.2641 -2.13204,-8.5281 -1.06602,-5.3301 -2.13204,-10.6602 l -9.59417,0 q 0,5.3301 1.06602,10.6602 1.06602,4.264 2.13204,8.5281 l 10.66019,0 z m -68.22522,9.5942 q 2.13204,-8.5282 0,-10.6602 -2.13204,-3.1981 -6.39612,-4.2641 -4.26407,-1.066 -11.72621,0 8.52816,2.1321 14.92427,4.2641 0,2.132 1.06602,4.2641 1.06602,2.132 2.13204,6.3961 z m -35.17863,9.5942 q 5.33009,-11.7263 6.39611,-13.8583 1.06602,-3.1981 -1.06602,-8.5281 l -9.59417,0 q 1.06602,5.33 1.06602,11.7262 1.06602,5.3301 3.19806,10.6602 z m 26.65048,17.0563 q 0,-6.3962 1.06601,-7.4622 -4.26407,0 -5.33009,1.066 0,0 4.26408,6.3962 z m -30.91456,0 q -2.13203,-4.2641 -3.19805,-7.4622 0,-3.198 -2.13204,-5.3301 -3.19806,2.1321 -6.39612,3.1981 -3.19805,0 -6.39611,2.132 0,3.1981 3.19806,7.4622 l 14.92426,0 z m 313.4096,9.5941 q -2.13204,-4.264 -4.26407,-8.5281 -2.13204,-4.2641 -6.39612,-8.5282 4.26408,1.066 6.39612,2.1321 2.13203,0 6.39611,2.132 -2.13204,4.2641 -2.13204,12.7922 z m -46.90484,0 q -3.19805,5.3301 -3.19805,7.4622 0,1.066 3.19805,9.5941 l 0,-17.0563 z m 42.64077,25.5845 q 0,-5.3301 3.19805,-10.6602 l 8.52816,0 q -8.52816,6.3961 -11.72621,10.6602 z m -115.13006,10.6602 q 1.06602,-5.3301 3.19806,-8.5282 3.19805,-4.2641 5.33009,-9.5941 -8.52815,0 -11.72621,1.066 0,7.4621 3.19806,17.0563 z m 57.56503,4.2641 0,-9.5942 -10.66019,0 0,9.5942 10.66019,0 z m 76.75337,0 4.26407,0 0,5.33 -4.26407,0 0,-5.33 z m -164.16693,26.6504 5.33009,0 0,4.2641 -5.33009,0 0,-4.2641 z m -155.63878,20.2544 q 2.13203,-17.0563 -1.06602,-24.5184 -3.19806,-8.5282 -6.39612,-17.0564 -5.33009,10.6602 -9.59417,20.2544 -3.19806,9.5942 -6.39611,21.3204 l 23.45242,0 z m 288.89116,0 4.26407,0 0,6.3961 -4.26407,0 0,-6.3961 z m -246.2504,10.6602 q -5.3301,-1.066 -9.59417,-2.1321 -3.19806,-1.066 -6.39612,-2.132 0,-8.5281 -1.06602,-9.5942 0,-2.132 -3.19805,-2.132 l 0,11.7262 -72.4893,0 q 0,-37.3107 6.39612,-66.0932 6.39611,-28.7825 17.0563,-53.3009 10.66019,-24.5185 23.45242,-47.9709 12.79223,-23.4524 27.71649,-49.0369 5.3301,3.1981 10.66019,6.3962 6.39612,3.198 13.85825,6.3961 1.06602,-10.6602 4.26408,-19.1884 -12.79223,-6.3961 -9.59417,-21.3204 3.19805,-15.99024 11.72621,-33.04655 8.52815,-17.0563 19.18834,-30.91455 10.66019,-14.92426 12.79223,-18.12232 l 11.72621,0 q 8.52815,-8.52815 7.46213,-18.12233 -1.06602,-10.66019 -3.19806,-17.0563 10.66019,-2.13204 12.79223,-2.13204 3.19806,0 9.59417,4.26408 2.13204,-7.46214 6.39612,-11.72621 -5.3301,-7.46214 -11.72621,-9.59417 -5.3301,-3.19806 -5.3301,-6.39612 l 9.59417,0 0,-20.25436 q -7.46213,0 -8.52815,0 -1.06602,-1.06602 -1.06602,-6.39611 6.39612,-2.13204 13.85825,-8.52816 8.52815,-7.46213 14.92427,-15.99028 7.46213,-9.59417 12.79223,-19.18834 6.39611,-9.59418 9.59417,-17.05631 20.25436,1.06602 24.51843,2.13204 4.26408,1.06602 11.72621,6.39611 7.46214,-12.79223 4.26408,-22.3864 -2.13204,-10.66019 -4.26408,-17.0563 -4.26407,1.06602 -8.52815,2.13204 -4.26407,1.06602 -8.52815,2.13203 l 0,-8.52815 21.32038,0 q 2.13204,-7.46213 2.13204,-13.85825 1.06602,-7.46213 3.19806,-12.79222 -8.52816,-2.13204 -14.92427,-3.19806 -6.39612,-2.13204 -14.92427,-3.19806 -2.13204,-31.98057 -2.13204,-63.96114 0,-33.04659 0,-65.02716 -24.51843,2.13204 -47.97085,4.26407 -23.45242,1.06602 -47.97086,3.19806 -1.06602,14.92427 -1.06602,30.91455 0,15.99029 0,30.91456 3.19806,2.13203 6.39612,5.33009 4.26407,2.13204 9.59417,7.46213 -23.45242,8.52816 -27.7165,10.66019 -3.19806,2.13204 -3.19806,6.39612 l 10.6602,0 q -5.3301,10.66019 -15.99029,14.92427 -10.66019,4.26407 -23.45242,9.59417 4.26408,-13.85825 6.39611,-22.3864 -5.33009,-2.13204 -10.66019,-2.13204 -4.26407,0 -8.52815,0 -2.13204,7.46213 -3.19806,15.99028 0,7.46214 -1.06601,14.92427 -8.52816,2.13204 -17.05631,3.19806 -7.46213,0 -13.85825,2.13204 l 0,-14.92427 q -4.26407,-2.13204 -7.46213,-4.26408 -3.19806,-3.19805 -6.39611,-5.33009 -4.26408,3.19806 -6.39612,7.46213 -10.66019,-8.52815 -15.99028,-13.85825 -5.3301,-5.33009 -8.52816,-8.52815 -2.13203,-4.26407 -3.19805,-7.46213 0,-4.26408 -1.06602,-9.59417 3.19805,1.06602 6.39611,2.13204 3.19806,1.06601 8.52815,2.13203 0,5.3301 2.13204,15.99029 3.19806,-1.06602 7.46214,-1.06602 4.26407,-1.06602 9.59417,-3.19806 l 0,-11.72621 q -5.3301,-2.13203 -11.72621,-5.33009 -6.39612,-3.19806 -10.66019,-5.3301 l 0,-87.41356 9.59417,0 q -1.06602,-7.46213 -1.06602,-15.99028 0,-8.52816 0,-15.99029 8.52815,-3.19806 14.92427,-6.39611 6.39611,-4.26408 14.92426,-7.46214 -3.19805,-1.06602 -8.52815,-1.06602 -2.13204,-3.19805 -2.13204,-7.46213 0,-4.26408 0,-7.46213 10.66019,-5.3301 14.92427,-6.39612 4.26407,-1.06602 21.32038,-1.06602 l 0,-8.52815 q 5.33009,2.13204 10.66019,4.26408 5.3301,2.13204 13.85825,5.33009 2.13204,-2.13204 4.26407,-8.52815 l 14.92427,0 q 3.19806,-12.79223 7.46213,-20.25436 2.13204,5.33009 3.19806,10.66019 2.13204,4.26408 6.39612,9.59417 7.46213,-1.06602 14.92426,-2.13204 7.46213,-1.06602 15.99029,-2.13204 1.06602,3.19806 2.13204,6.39612 1.06601,3.19806 3.19805,8.52815 12.79223,-3.19806 24.51844,-6.39611 12.79223,-4.26408 26.65048,-7.46214 -9.59417,-4.26407 -13.85825,-7.46213 -3.19806,-4.26408 -5.3301,-6.39611 -2.13203,-2.13204 -4.26407,-2.13204 -2.13204,0 -9.59417,1.06602 -1.06602,-3.19806 -2.13204,-6.39612 -1.06602,-3.19805 -1.06602,-6.39611 11.72621,2.13204 23.45242,4.26407 11.72621,2.13204 24.51844,4.26408 -4.26408,4.26408 -6.39612,11.72621 2.13204,8.52815 2.13204,19.18834 0,10.66019 -3.19806,28.78252 14.92427,2.13203 27.7165,5.33009 13.85825,3.19806 29.84853,6.39612 2.13204,-8.52816 5.3301,-17.05631 3.19805,-9.59417 6.39611,-20.25436 -2.13204,-2.13204 -3.19806,-3.19806 -1.06602,-2.13204 -3.19805,-4.26407 5.33009,0 14.92426,0 9.59417,-1.06602 18.12233,2.13203 9.59417,2.13204 14.92426,9.59418 6.39612,6.39611 3.19806,21.32038 l 20.25436,0 q -3.19805,3.19805 -4.26407,7.46213 -5.3301,-2.13204 -9.59418,-2.13204 -3.19805,0 -6.39611,0 -3.19806,3.19806 -3.19806,7.46214 5.3301,6.39611 9.59417,10.66019 5.3301,4.26407 8.52816,9.59417 3.19805,5.33009 5.33009,13.85824 2.13204,8.52816 4.26408,23.45242 l -8.52815,0 q -7.46214,10.66019 -8.52816,21.32038 6.39612,8.52816 11.72621,18.12233 6.39612,8.52815 11.72621,17.0563 6.39612,0 7.46214,1.06602 1.06601,0 1.06601,5.3301 l -8.52815,0 0,51.16891 -10.66019,0 q 3.19806,18.12232 4.26408,27.7165 1.06602,9.59417 1.06602,18.12232 1.06602,7.46213 0,15.99029 0,7.46213 -1.06602,20.25436 7.46213,1.06602 14.92426,2.13204 7.46214,1.06601 17.05631,2.13203 -2.13204,8.52816 -5.3301,14.92427 -2.13203,6.39611 -4.26407,13.85825 -25.58446,-10.66019 -35.17863,-11.72621 -8.52815,-2.13204 -12.79223,3.19806 -3.19806,4.26407 -8.52815,12.79222 -4.26408,7.46214 -21.32038,15.99029 9.59417,5.33009 19.18834,5.33009 10.66019,-1.06601 31.98057,7.46214 0,2.13204 -7.46213,7.46213 -6.39612,5.3301 -11.72621,13.85825 -5.3301,7.46213 -4.26408,17.0563 2.13204,9.59418 18.12233,20.25437 -12.79223,3.19805 -22.3864,8.52815 l -6.39612,-6.39612 q -3.19805,2.13204 -6.39611,4.26408 -3.19806,1.06602 -6.39612,3.19806 -5.33009,-14.92427 -8.52815,-23.45242 -2.13204,-8.52815 -2.13204,-14.92427 0,-6.39611 1.06602,-11.72621 2.13204,-6.39611 5.3301,-14.92426 -2.13204,-1.06602 -5.3301,-2.13204 -2.13204,-1.06602 -4.26407,-1.06602 0,-4.26408 1.06602,-7.46214 1.06601,-3.19805 2.13203,-6.39611 -11.72621,4.26408 -15.99028,8.52815 -3.19806,3.19806 -4.26408,8.52816 -1.06602,5.33009 -2.13204,13.85824 0,7.46214 -3.19805,20.25436 5.33009,2.13204 8.52815,5.3301 4.26408,2.13204 9.59417,4.26408 l 0,19.18834 q -17.0563,0 -19.18834,5.33009 -1.06602,5.3301 -4.26408,13.85825 -2.13204,-3.19806 -3.19806,-6.39611 0,-3.19806 -1.06601,-5.3301 -9.59418,-3.19805 -18.12233,-3.19805 -11.72621,5.33009 -18.12232,11.7262 0,4.26408 1.06602,9.59418 1.06602,4.26407 2.13204,9.59417 4.26407,-4.26408 5.33009,-5.3301 1.06602,-2.13204 3.19806,-2.13204 2.13204,-1.06602 5.33009,0 4.26408,0 13.85825,0 2.13204,8.52816 2.13204,18.12233 1.06602,8.52815 3.19806,17.0563 3.19805,5.3301 9.59417,6.39612 l 0,-11.72621 17.0563,0 0,22.3864 -10.66019,0 0,8.52811 -15.99028,0 q 0,-4.264 2.13203,-10.66015 -5.33009,-2.13204 -10.66019,-3.19806 -5.33009,-2.13204 -10.66019,-4.26407 -2.13204,5.33009 -4.26407,9.59417 -2.13204,3.19801 -3.19806,8.52811 l -19.18834,0 q -4.26408,8.5282 -6.39612,19.1884 -1.06602,-2.1321 -2.13204,-4.2641 -1.06601,-2.132 -2.13203,-4.2641 -14.92427,6.3961 -23.45242,10.6602 -8.52816,3.1981 -12.79223,5.3301 -4.26408,2.1321 -6.39612,4.2641 -1.06601,1.066 -2.13203,4.2641 l 35.17862,0 q -2.13203,5.3301 -4.26407,11.7262 -1.06602,5.3301 -2.13204,10.6602 l 9.59417,0 q -3.19806,8.5281 -9.59417,18.1223 -6.39611,9.5942 -12.79223,20.2544 -5.33009,9.5941 -8.52815,21.3203 -2.13204,11.7262 1.06602,22.3864 41.57474,-2.132 84.2155,-2.132 42.64076,-1.066 85.28153,-2.132 2.13203,10.6601 4.26407,23.4524 2.13204,12.7922 6.39612,24.5184 4.26407,-1.066 15.99028,-1.066 -10.66019,14.9243 -12.79223,18.1223 -1.06601,3.1981 -1.06601,8.5282 3.19805,0 6.39611,1.066 -10.66019,5.3301 -27.7165,6.3961 -15.99028,0 -20.25436,0 -8.52815,11.7262 -20.25436,15.9903 -11.72621,4.2641 -24.51844,5.3301 -12.79223,0 -25.58445,0 -11.72621,-1.066 -21.32039,-1.066 0,-9.5942 1.06602,-17.0563 1.06602,-8.5282 2.13204,-17.0563 -8.52815,2.132 -11.72621,2.132 -2.13204,-1.066 -10.66019,-6.3961 -3.19806,5.3301 -6.39611,9.5942 -3.19806,3.198 -6.39612,8.5281 1.06602,3.1981 3.19806,8.5282 2.13204,4.264 4.26408,9.5941 -25.58446,2.1321 -51.16892,4.2641 -25.58445,2.132 -50.10289,4.2641 z m 231.32613,4.2641 4.26408,0 0,6.3961 -4.26408,0 0,-6.3961 z m -76.75337,0 9.59417,0 0,6.3961 -9.59417,0 0,-6.3961 z m -112.99802,0 4.26408,0 0,6.3961 -4.26408,0 0,-6.3961 z m 101.27181,6.3961 7.46213,0 0,4.264 -7.46213,0 0,-4.264 z m 61.8291,20.2543 q -5.33009,-14.9242 -5.33009,-18.1223 0,-3.198 2.13204,-9.5942 l 22.3864,0 q -8.52816,8.5282 -11.72621,18.1224 -2.13204,9.5941 -7.46214,9.5941 z m -71.42327,10.6602 q -2.13204,-5.3301 -3.19806,-8.5281 -1.06602,-3.1981 -2.13204,-6.3961 3.19806,0 6.39612,0 4.26407,0 9.59417,1.066 -3.19806,4.2641 -6.39612,7.4621 -2.13203,3.1981 -4.26407,6.3961 z"
         style="font-style:normal;font-variant:normal;font-weight:normal;font-stretch:normal;font-family:'Demon Sker';-inkscape-font-specification:'Demon Sker'"
         id="path3363" />
    </g>
    <g
       style="font-style:normal;font-weight:normal;font-size:1131.85876465px;line-height:125%;font-family:sans-serif;letter-spacing:0px;word-spacing:0px;fill:#000000;fill-opacity:1;stroke:none;stroke-width:1px;stroke-linecap:butt;stroke-linejoin:miter;stroke-opacity:1"
       id="text3351">
      <path
         d="m -710.11332,1014.7458 q 0,121.1089 -90.5487,190.1523 -90.5487,67.9115 -215.05318,67.9115 -130.1637,0 -130.1637,-64.5159 0,-18.1097 11.3185,-28.2965 11.3186,-10.1867 29.4284,-10.1867 27.1646,0 76.9664,31.692 49.80176,30.5602 84.88938,30.5602 69.04338,0 110.92216,-47.538 41.87877,-47.5381 41.87877,-116.5815 0,-96.20799 -54.32922,-140.35048 -54.32922,-44.14249 -177.70179,-44.14249 l -2.2638,-15.84602 q 187.8886,-57.7248 187.8886,-187.88856 0,-54.32922 -35.08762,-87.15312 -33.95576,-32.82391 -88.28498,-32.82391 -104.131,0 -168.647,118.84517 l -16.9778,-5.65929 q 27.1646,-86.02127 84.8894,-133.55933 57.7248,-47.53807 136.95488,-47.53807 86.02126,0 130.16375,41.87877 45.27436,40.74692 45.27436,109.7903 0,92.81242 -104.13101,158.46023 73.57082,30.56019 107.52658,81.49383 35.08762,49.80179 35.08762,131.29557 z"
         style="font-style:normal;font-variant:normal;font-weight:500;font-stretch:normal;font-family:Kinnari;-inkscape-font-specification:'Kinnari Medium'"
         id="path3360" />
    </g>
    <g
       transform="scale(0.99725973,1.0027478)"
       style="font-style:normal;font-weight:normal;font-size:1066.01904297px;line-height:125%;font-family:sans-serif;letter-spacing:0px;word-spacing:0px;fill:#000000;fill-opacity:1;stroke:none;stroke-width:1px;stroke-linecap:butt;stroke-linejoin:miter;stroke-opacity:1"
       id="text3355"
       inkscape:export-filename="/home/avishay/projects/hitem/software/host/game/static/countdown_1.png"
       inkscape:export-xdpi="61.282181"
       inkscape:export-ydpi="61.282181">
      <path
         d="m 181.2487,514.73716 q 1.06602,-2.13204 2.13204,-5.33009 -39.4427,-5.3301 -62.89512,-6.39612 -8.52815,63.96114 -11.72621,131.12034 -3.19806,67.1592 -3.19806,165.23296 0,88.47958 -1.06602,133.25238 -5.330093,224.92997 -5.330093,362.44647 17.056303,0 49.036873,0 31.98057,1.066 46.90484,1.066 -3.19806,-6.3961 -3.19806,-13.8582 l 0,-10.6602 q -9.59417,10.6602 -23.45242,10.6602 -12.79222,0 -22.38639,-9.5942 -8.52816,-8.5282 -8.52816,-21.3204 0,-81.0174 -2.13204,-241.9863 -1.06601,-162.0349 -1.06601,-243.05235 0,-13.85824 -1.06602,-66.09318 -1.06602,-53.30095 0,-89.5456 1.06602,-37.31066 5.33009,-71.42327 2.13204,-12.79223 11.72621,-20.25436 10.66019,-7.46214 23.45242,-6.39612 4.26408,1.06602 7.46213,2.13204 z m 72.4893,715.29874 0,52.235 q 0,5.3301 -2.13204,10.6602 7.46213,-1.0661 13.85825,-2.1321 l 0,-57.565 q -6.39612,0 -11.72621,-3.1981 z M 198.30501,758.85552 q -1.06602,-11.72621 -2.13204,-25.58446 l 0,31.98058 2.13204,-6.39612 z M 319.83118,501.94493 q 5.33009,29.84854 5.33009,63.96114 1.06602,33.0466 -1.06601,76.75338 -1.06602,42.64076 -1.06602,58.63104 0,99.13977 -7.46214,296.3533 -7.46213,197.21351 -7.46213,296.35331 0,5.3301 -2.13204,10.6602 1.06602,8.5281 -4.26407,15.9903 -4.26408,7.4621 -12.79223,9.5941 -31.98057,6.3961 -72.4893,7.4622 -40.50872,2.132 -72.48929,1.066 -31.98057,-1.066 -68.225222,0 -8.528152,0 -15.990285,-6.3961 -6.396115,-5.3301 -6.396115,-13.8583 0,-6.3961 3.198057,-12.7922 0,-141.7805 5.330096,-373.10667 1.066019,-45.83882 1.066019,-135.38442 0,-102.33783 3.198057,-171.62907 4.264076,-70.35726 12.792228,-137.51646 1.066019,-9.59417 10.660191,-14.92426 5.330095,-12.79223 19.188344,-12.79223 29.84853,0 97.00773,9.59417 59.69707,8.52815 90.61162,8.52815 7.46213,0 13.85825,5.3301 6.39611,5.33009 7.46213,12.79223 1.06602,2.13203 2.13204,5.33009 z m -77.81939,21.32038 q 0,47.97086 7.46213,123.65821 10.66019,110.86598 11.72621,126.85627 1.06602,14.92426 4.26408,89.5456 4.26407,74.62133 8.52815,115.13005 6.39611,-179.09119 6.39611,-277.16495 0,-20.25436 1.06602,-58.63104 2.13204,-38.37669 1.06602,-67.1592 0,-28.78252 -3.19805,-54.36698 -17.05631,-1.06601 -37.31067,-3.19805 l 0,5.33009 z"
         style="font-style:normal;font-variant:normal;font-weight:500;font-stretch:normal;font-family:KBLuckyClover;-inkscape-font-specification:'KBLuckyClover Medium'"
         id="path3366" />
    </g>
  </g>
</svg>
